<mxfile host="app.diagrams.net" modified="2024-01-25T14:11:37.522Z" agent="Mozilla/5.0 (X11; Ubuntu; Linux x86_64; rv:109.0) Gecko/20100101 Firefox/119.0" etag="Jt_fkopiPaAzcG9uM0Ra" version="22.1.21" type="github" pages="3">
  <diagram id="C5RBs43oDa-KdzZeNtuy" name="Page-1">
    <mxGraphModel dx="1434" dy="766" grid="1" gridSize="10" guides="1" tooltips="1" connect="1" arrows="1" fold="1" page="1" pageScale="1" pageWidth="827" pageHeight="1169" math="0" shadow="0">
      <root>
        <mxCell id="WIyWlLk6GJQsqaUBKTNV-0" />
        <mxCell id="WIyWlLk6GJQsqaUBKTNV-1" parent="WIyWlLk6GJQsqaUBKTNV-0" />
        <mxCell id="Gj214TnAQ4UsBlxBKr0H-0" value="Agent" style="swimlane;fontStyle=2;align=center;verticalAlign=top;childLayout=stackLayout;horizontal=1;startSize=26;horizontalStack=0;resizeParent=1;resizeLast=0;collapsible=1;marginBottom=0;rounded=0;shadow=0;strokeWidth=1;" parent="WIyWlLk6GJQsqaUBKTNV-1" vertex="1">
          <mxGeometry x="220" y="60" width="160" height="554" as="geometry">
            <mxRectangle x="230" y="140" width="160" height="26" as="alternateBounds" />
          </mxGeometry>
        </mxCell>
        <mxCell id="Gj214TnAQ4UsBlxBKr0H-1" value="amountOfWood" style="text;html=1;align=center;verticalAlign=middle;resizable=0;points=[];autosize=1;strokeColor=none;fillColor=none;" parent="Gj214TnAQ4UsBlxBKr0H-0" vertex="1">
          <mxGeometry y="26" width="160" height="30" as="geometry" />
        </mxCell>
        <mxCell id="Gj214TnAQ4UsBlxBKr0H-2" value="amountOfLeaves" style="text;html=1;align=center;verticalAlign=middle;resizable=0;points=[];autosize=1;strokeColor=none;fillColor=none;" parent="Gj214TnAQ4UsBlxBKr0H-0" vertex="1">
          <mxGeometry y="56" width="160" height="30" as="geometry" />
        </mxCell>
        <mxCell id="Gj214TnAQ4UsBlxBKr0H-3" value="amountOfFruits" style="text;html=1;align=center;verticalAlign=middle;resizable=0;points=[];autosize=1;strokeColor=none;fillColor=none;" parent="Gj214TnAQ4UsBlxBKr0H-0" vertex="1">
          <mxGeometry y="86" width="160" height="30" as="geometry" />
        </mxCell>
        <mxCell id="Gj214TnAQ4UsBlxBKr0H-4" value="amountOfGrass" style="text;html=1;align=center;verticalAlign=middle;resizable=0;points=[];autosize=1;strokeColor=none;fillColor=none;" parent="Gj214TnAQ4UsBlxBKr0H-0" vertex="1">
          <mxGeometry y="116" width="160" height="30" as="geometry" />
        </mxCell>
        <mxCell id="Gj214TnAQ4UsBlxBKr0H-5" value="maxAmountOfWood" style="text;html=1;align=center;verticalAlign=middle;resizable=0;points=[];autosize=1;strokeColor=none;fillColor=none;" parent="Gj214TnAQ4UsBlxBKr0H-0" vertex="1">
          <mxGeometry y="146" width="160" height="30" as="geometry" />
        </mxCell>
        <mxCell id="Gj214TnAQ4UsBlxBKr0H-6" value="maxAmountOfLeaves" style="text;html=1;align=center;verticalAlign=middle;resizable=0;points=[];autosize=1;strokeColor=none;fillColor=none;" parent="Gj214TnAQ4UsBlxBKr0H-0" vertex="1">
          <mxGeometry y="176" width="160" height="30" as="geometry" />
        </mxCell>
        <mxCell id="Gj214TnAQ4UsBlxBKr0H-7" value="maxAmountOfFruits" style="text;html=1;align=center;verticalAlign=middle;resizable=0;points=[];autosize=1;strokeColor=none;fillColor=none;" parent="Gj214TnAQ4UsBlxBKr0H-0" vertex="1">
          <mxGeometry y="206" width="160" height="30" as="geometry" />
        </mxCell>
        <mxCell id="Gj214TnAQ4UsBlxBKr0H-8" value="maxAmountOfGrass" style="text;html=1;align=center;verticalAlign=middle;resizable=0;points=[];autosize=1;strokeColor=none;fillColor=none;" parent="Gj214TnAQ4UsBlxBKr0H-0" vertex="1">
          <mxGeometry y="236" width="160" height="30" as="geometry" />
        </mxCell>
        <mxCell id="Gj214TnAQ4UsBlxBKr0H-9" value="" style="line;html=1;strokeWidth=1;align=left;verticalAlign=middle;spacingTop=-1;spacingLeft=3;spacingRight=3;rotatable=0;labelPosition=right;points=[];portConstraint=eastwest;" parent="Gj214TnAQ4UsBlxBKr0H-0" vertex="1">
          <mxGeometry y="266" width="160" height="8" as="geometry" />
        </mxCell>
        <mxCell id="Gj214TnAQ4UsBlxBKr0H-10" value="&lt;div&gt;collectWood()&lt;/div&gt;" style="text;html=1;align=center;verticalAlign=middle;resizable=0;points=[];autosize=1;strokeColor=none;fillColor=none;" parent="Gj214TnAQ4UsBlxBKr0H-0" vertex="1">
          <mxGeometry y="274" width="160" height="30" as="geometry" />
        </mxCell>
        <mxCell id="Gj214TnAQ4UsBlxBKr0H-11" value="&lt;div&gt;collectLeaves()&lt;/div&gt;" style="text;html=1;align=center;verticalAlign=middle;resizable=0;points=[];autosize=1;strokeColor=none;fillColor=none;" parent="Gj214TnAQ4UsBlxBKr0H-0" vertex="1">
          <mxGeometry y="304" width="160" height="30" as="geometry" />
        </mxCell>
        <mxCell id="Gj214TnAQ4UsBlxBKr0H-12" value="&lt;div&gt;collectFruits()&lt;/div&gt;" style="text;html=1;align=center;verticalAlign=middle;resizable=0;points=[];autosize=1;strokeColor=none;fillColor=none;" parent="Gj214TnAQ4UsBlxBKr0H-0" vertex="1">
          <mxGeometry y="334" width="160" height="30" as="geometry" />
        </mxCell>
        <mxCell id="Gj214TnAQ4UsBlxBKr0H-13" value="&lt;div&gt;collectGrass()&lt;/div&gt;" style="text;html=1;align=center;verticalAlign=middle;resizable=0;points=[];autosize=1;strokeColor=none;fillColor=none;" parent="Gj214TnAQ4UsBlxBKr0H-0" vertex="1">
          <mxGeometry y="364" width="160" height="30" as="geometry" />
        </mxCell>
        <mxCell id="Gj214TnAQ4UsBlxBKr0H-14" value="&lt;div&gt;consumeWood()&lt;/div&gt;" style="text;html=1;align=center;verticalAlign=middle;resizable=0;points=[];autosize=1;strokeColor=none;fillColor=none;" parent="Gj214TnAQ4UsBlxBKr0H-0" vertex="1">
          <mxGeometry y="394" width="160" height="30" as="geometry" />
        </mxCell>
        <mxCell id="Gj214TnAQ4UsBlxBKr0H-15" value="&lt;div&gt;consumeLeaves()&lt;/div&gt;" style="text;html=1;align=center;verticalAlign=middle;resizable=0;points=[];autosize=1;strokeColor=none;fillColor=none;" parent="Gj214TnAQ4UsBlxBKr0H-0" vertex="1">
          <mxGeometry y="424" width="160" height="30" as="geometry" />
        </mxCell>
        <mxCell id="Gj214TnAQ4UsBlxBKr0H-16" value="&lt;div&gt;consumeFruits()&lt;/div&gt;" style="text;html=1;align=center;verticalAlign=middle;resizable=0;points=[];autosize=1;strokeColor=none;fillColor=none;" parent="Gj214TnAQ4UsBlxBKr0H-0" vertex="1">
          <mxGeometry y="454" width="160" height="30" as="geometry" />
        </mxCell>
        <mxCell id="Gj214TnAQ4UsBlxBKr0H-17" value="&lt;div&gt;consumeGrass()&lt;/div&gt;" style="text;html=1;align=center;verticalAlign=middle;resizable=0;points=[];autosize=1;strokeColor=none;fillColor=none;" parent="Gj214TnAQ4UsBlxBKr0H-0" vertex="1">
          <mxGeometry y="484" width="160" height="30" as="geometry" />
        </mxCell>
        <mxCell id="Gj214TnAQ4UsBlxBKr0H-18" value="&lt;div&gt;move()&lt;/div&gt;" style="text;html=1;align=center;verticalAlign=middle;resizable=0;points=[];autosize=1;strokeColor=none;fillColor=none;" parent="Gj214TnAQ4UsBlxBKr0H-0" vertex="1">
          <mxGeometry y="514" width="160" height="30" as="geometry" />
        </mxCell>
        <mxCell id="Gj214TnAQ4UsBlxBKr0H-19" value="Agro-pastoralist" style="swimlane;fontStyle=0;align=center;verticalAlign=top;childLayout=stackLayout;horizontal=1;startSize=26;horizontalStack=0;resizeParent=1;resizeLast=0;collapsible=1;marginBottom=0;rounded=0;shadow=0;strokeWidth=1;" parent="WIyWlLk6GJQsqaUBKTNV-1" vertex="1">
          <mxGeometry x="80" y="660" width="160" height="184" as="geometry">
            <mxRectangle x="130" y="380" width="160" height="26" as="alternateBounds" />
          </mxGeometry>
        </mxCell>
        <mxCell id="Gj214TnAQ4UsBlxBKr0H-20" value="" style="line;html=1;strokeWidth=1;align=left;verticalAlign=middle;spacingTop=-1;spacingLeft=3;spacingRight=3;rotatable=0;labelPosition=right;points=[];portConstraint=eastwest;" parent="Gj214TnAQ4UsBlxBKr0H-19" vertex="1">
          <mxGeometry y="26" width="160" height="8" as="geometry" />
        </mxCell>
        <mxCell id="t7xW0_Q7et7aiPYMoJ1h-4" value="&lt;div&gt;grassConsumptionRatio&lt;/div&gt;" style="text;html=1;align=center;verticalAlign=middle;resizable=0;points=[];autosize=1;strokeColor=none;fillColor=none;" vertex="1" parent="Gj214TnAQ4UsBlxBKr0H-19">
          <mxGeometry y="34" width="160" height="30" as="geometry" />
        </mxCell>
        <mxCell id="t7xW0_Q7et7aiPYMoJ1h-3" value="&lt;div&gt;fruitsConsumptionRatio&lt;/div&gt;" style="text;html=1;align=center;verticalAlign=middle;resizable=0;points=[];autosize=1;strokeColor=none;fillColor=none;" vertex="1" parent="Gj214TnAQ4UsBlxBKr0H-19">
          <mxGeometry y="64" width="160" height="30" as="geometry" />
        </mxCell>
        <mxCell id="t7xW0_Q7et7aiPYMoJ1h-2" value="&lt;div&gt;leavesConsumptionRatio&lt;/div&gt;" style="text;html=1;align=center;verticalAlign=middle;resizable=0;points=[];autosize=1;strokeColor=none;fillColor=none;" vertex="1" parent="Gj214TnAQ4UsBlxBKr0H-19">
          <mxGeometry y="94" width="160" height="30" as="geometry" />
        </mxCell>
        <mxCell id="t7xW0_Q7et7aiPYMoJ1h-1" value="&lt;div&gt;consumeWood&lt;/div&gt;" style="text;html=1;align=center;verticalAlign=middle;resizable=0;points=[];autosize=1;strokeColor=none;fillColor=none;" vertex="1" parent="Gj214TnAQ4UsBlxBKr0H-19">
          <mxGeometry y="124" width="160" height="30" as="geometry" />
        </mxCell>
        <mxCell id="Gj214TnAQ4UsBlxBKr0H-21" value="cultivateCrops()" style="text;html=1;align=center;verticalAlign=middle;resizable=0;points=[];autosize=1;strokeColor=none;fillColor=none;" parent="Gj214TnAQ4UsBlxBKr0H-19" vertex="1">
          <mxGeometry y="154" width="160" height="30" as="geometry" />
        </mxCell>
        <mxCell id="Gj214TnAQ4UsBlxBKr0H-22" value="" style="endArrow=block;endSize=10;endFill=0;shadow=0;strokeWidth=1;rounded=0;edgeStyle=elbowEdgeStyle;elbow=vertical;" parent="WIyWlLk6GJQsqaUBKTNV-1" source="Gj214TnAQ4UsBlxBKr0H-19" target="Gj214TnAQ4UsBlxBKr0H-0" edge="1">
          <mxGeometry width="160" relative="1" as="geometry">
            <mxPoint x="120" y="343" as="sourcePoint" />
            <mxPoint x="120" y="343" as="targetPoint" />
          </mxGeometry>
        </mxCell>
        <mxCell id="Gj214TnAQ4UsBlxBKr0H-25" value="Pastor" style="swimlane;fontStyle=0;align=center;verticalAlign=top;childLayout=stackLayout;horizontal=1;startSize=26;horizontalStack=0;resizeParent=1;resizeLast=0;collapsible=1;marginBottom=0;rounded=0;shadow=0;strokeWidth=1;" parent="WIyWlLk6GJQsqaUBKTNV-1" vertex="1">
          <mxGeometry x="420" y="660" width="160" height="244" as="geometry">
            <mxRectangle x="340" y="380" width="170" height="26" as="alternateBounds" />
          </mxGeometry>
        </mxCell>
        <mxCell id="Gj214TnAQ4UsBlxBKr0H-26" value="" style="line;html=1;strokeWidth=1;align=left;verticalAlign=middle;spacingTop=-1;spacingLeft=3;spacingRight=3;rotatable=0;labelPosition=right;points=[];portConstraint=eastwest;" parent="Gj214TnAQ4UsBlxBKr0H-25" vertex="1">
          <mxGeometry y="26" width="160" height="8" as="geometry" />
        </mxCell>
        <mxCell id="t7xW0_Q7et7aiPYMoJ1h-5" value="&lt;div&gt;consumeGrass()&lt;/div&gt;" style="text;html=1;align=center;verticalAlign=middle;resizable=0;points=[];autosize=1;strokeColor=none;fillColor=none;" vertex="1" parent="Gj214TnAQ4UsBlxBKr0H-25">
          <mxGeometry y="34" width="160" height="30" as="geometry" />
        </mxCell>
        <mxCell id="t7xW0_Q7et7aiPYMoJ1h-8" value="&lt;div&gt;consumeWood()&lt;/div&gt;" style="text;html=1;align=center;verticalAlign=middle;resizable=0;points=[];autosize=1;strokeColor=none;fillColor=none;" vertex="1" parent="Gj214TnAQ4UsBlxBKr0H-25">
          <mxGeometry y="64" width="160" height="30" as="geometry" />
        </mxCell>
        <mxCell id="t7xW0_Q7et7aiPYMoJ1h-7" value="&lt;div&gt;consumeLeaves()&lt;/div&gt;" style="text;html=1;align=center;verticalAlign=middle;resizable=0;points=[];autosize=1;strokeColor=none;fillColor=none;" vertex="1" parent="Gj214TnAQ4UsBlxBKr0H-25">
          <mxGeometry y="94" width="160" height="30" as="geometry" />
        </mxCell>
        <mxCell id="t7xW0_Q7et7aiPYMoJ1h-6" value="&lt;div&gt;consumeFruits()&lt;/div&gt;" style="text;html=1;align=center;verticalAlign=middle;resizable=0;points=[];autosize=1;strokeColor=none;fillColor=none;" vertex="1" parent="Gj214TnAQ4UsBlxBKr0H-25">
          <mxGeometry y="124" width="160" height="30" as="geometry" />
        </mxCell>
        <mxCell id="Gj214TnAQ4UsBlxBKr0H-30" value="" style="endArrow=block;endSize=10;endFill=0;shadow=0;strokeWidth=1;rounded=0;edgeStyle=elbowEdgeStyle;elbow=vertical;" parent="WIyWlLk6GJQsqaUBKTNV-1" source="Gj214TnAQ4UsBlxBKr0H-25" target="Gj214TnAQ4UsBlxBKr0H-0" edge="1">
          <mxGeometry width="160" relative="1" as="geometry">
            <mxPoint x="130" y="513" as="sourcePoint" />
            <mxPoint x="230" y="411" as="targetPoint" />
          </mxGeometry>
        </mxCell>
        <mxCell id="Gj214TnAQ4UsBlxBKr0H-41" value="Cell" style="swimlane;fontStyle=0;align=center;verticalAlign=top;childLayout=stackLayout;horizontal=1;startSize=26;horizontalStack=0;resizeParent=1;resizeLast=0;collapsible=1;marginBottom=0;rounded=0;shadow=0;strokeWidth=1;" parent="WIyWlLk6GJQsqaUBKTNV-1" vertex="1">
          <mxGeometry x="1210" y="300" width="160" height="274" as="geometry">
            <mxRectangle x="550" y="140" width="160" height="26" as="alternateBounds" />
          </mxGeometry>
        </mxCell>
        <mxCell id="Gj214TnAQ4UsBlxBKr0H-42" value="amountOfLeaves" style="text;align=left;verticalAlign=top;spacingLeft=4;spacingRight=4;overflow=hidden;rotatable=0;points=[[0,0.5],[1,0.5]];portConstraint=eastwest;" parent="Gj214TnAQ4UsBlxBKr0H-41" vertex="1">
          <mxGeometry y="26" width="160" height="26" as="geometry" />
        </mxCell>
        <mxCell id="Gj214TnAQ4UsBlxBKr0H-43" value="amountOfFruits" style="text;align=left;verticalAlign=top;spacingLeft=4;spacingRight=4;overflow=hidden;rotatable=0;points=[[0,0.5],[1,0.5]];portConstraint=eastwest;" parent="Gj214TnAQ4UsBlxBKr0H-41" vertex="1">
          <mxGeometry y="52" width="160" height="26" as="geometry" />
        </mxCell>
        <mxCell id="Gj214TnAQ4UsBlxBKr0H-44" value="amountOfGrass" style="text;align=left;verticalAlign=top;spacingLeft=4;spacingRight=4;overflow=hidden;rotatable=0;points=[[0,0.5],[1,0.5]];portConstraint=eastwest;" parent="Gj214TnAQ4UsBlxBKr0H-41" vertex="1">
          <mxGeometry y="78" width="160" height="26" as="geometry" />
        </mxCell>
        <mxCell id="Gj214TnAQ4UsBlxBKr0H-45" value="amountOfWood" style="text;align=left;verticalAlign=top;spacingLeft=4;spacingRight=4;overflow=hidden;rotatable=0;points=[[0,0.5],[1,0.5]];portConstraint=eastwest;" parent="Gj214TnAQ4UsBlxBKr0H-41" vertex="1">
          <mxGeometry y="104" width="160" height="26" as="geometry" />
        </mxCell>
        <mxCell id="Gj214TnAQ4UsBlxBKr0H-46" value="hasVillage" style="text;align=left;verticalAlign=top;spacingLeft=4;spacingRight=4;overflow=hidden;rotatable=0;points=[[0,0.5],[1,0.5]];portConstraint=eastwest;" parent="Gj214TnAQ4UsBlxBKr0H-41" vertex="1">
          <mxGeometry y="130" width="160" height="26" as="geometry" />
        </mxCell>
        <mxCell id="Gj214TnAQ4UsBlxBKr0H-47" value="" style="line;html=1;strokeWidth=1;align=left;verticalAlign=middle;spacingTop=-1;spacingLeft=3;spacingRight=3;rotatable=0;labelPosition=right;points=[];portConstraint=eastwest;" parent="Gj214TnAQ4UsBlxBKr0H-41" vertex="1">
          <mxGeometry y="156" width="160" height="8" as="geometry" />
        </mxCell>
        <mxCell id="Gj214TnAQ4UsBlxBKr0H-48" value="growLeaves()" style="text;align=left;verticalAlign=top;spacingLeft=4;spacingRight=4;overflow=hidden;rotatable=0;points=[[0,0.5],[1,0.5]];portConstraint=eastwest;" parent="Gj214TnAQ4UsBlxBKr0H-41" vertex="1">
          <mxGeometry y="164" width="160" height="26" as="geometry" />
        </mxCell>
        <mxCell id="Gj214TnAQ4UsBlxBKr0H-49" value="growFruits()" style="text;align=left;verticalAlign=top;spacingLeft=4;spacingRight=4;overflow=hidden;rotatable=0;points=[[0,0.5],[1,0.5]];portConstraint=eastwest;" parent="Gj214TnAQ4UsBlxBKr0H-41" vertex="1">
          <mxGeometry y="190" width="160" height="26" as="geometry" />
        </mxCell>
        <mxCell id="Gj214TnAQ4UsBlxBKr0H-50" value="growGrass()" style="text;align=left;verticalAlign=top;spacingLeft=4;spacingRight=4;overflow=hidden;rotatable=0;points=[[0,0.5],[1,0.5]];portConstraint=eastwest;" parent="Gj214TnAQ4UsBlxBKr0H-41" vertex="1">
          <mxGeometry y="216" width="160" height="26" as="geometry" />
        </mxCell>
        <mxCell id="Gj214TnAQ4UsBlxBKr0H-51" value="growWood()" style="text;align=left;verticalAlign=top;spacingLeft=4;spacingRight=4;overflow=hidden;rotatable=0;points=[[0,0.5],[1,0.5]];portConstraint=eastwest;" parent="Gj214TnAQ4UsBlxBKr0H-41" vertex="1">
          <mxGeometry y="242" width="160" height="26" as="geometry" />
        </mxCell>
        <mxCell id="Gj214TnAQ4UsBlxBKr0H-68" value="1" style="resizable=0;align=right;verticalAlign=bottom;labelBackgroundColor=none;fontSize=12;" parent="WIyWlLk6GJQsqaUBKTNV-1" connectable="0" vertex="1">
          <mxGeometry x="929.9961904761903" y="560.9961904761905" as="geometry">
            <mxPoint x="275" y="-118" as="offset" />
          </mxGeometry>
        </mxCell>
        <mxCell id="Gj214TnAQ4UsBlxBKr0H-69" value="CaangolCell" style="swimlane;fontStyle=0;align=center;verticalAlign=top;childLayout=stackLayout;horizontal=1;startSize=26;horizontalStack=0;resizeParent=1;resizeLast=0;collapsible=1;marginBottom=0;rounded=0;shadow=0;strokeWidth=1;" parent="WIyWlLk6GJQsqaUBKTNV-1" vertex="1">
          <mxGeometry x="930" y="624" width="170" height="280" as="geometry">
            <mxRectangle x="340" y="380" width="170" height="26" as="alternateBounds" />
          </mxGeometry>
        </mxCell>
        <mxCell id="Gj214TnAQ4UsBlxBKr0H-70" value="maxAmountOfLeaves" style="text;html=1;align=center;verticalAlign=middle;resizable=0;points=[];autosize=1;strokeColor=none;fillColor=none;" parent="Gj214TnAQ4UsBlxBKr0H-69" vertex="1">
          <mxGeometry y="26" width="170" height="30" as="geometry" />
        </mxCell>
        <mxCell id="Gj214TnAQ4UsBlxBKr0H-71" value="maxAmountOfFruits" style="text;html=1;align=center;verticalAlign=middle;resizable=0;points=[];autosize=1;strokeColor=none;fillColor=none;" parent="Gj214TnAQ4UsBlxBKr0H-69" vertex="1">
          <mxGeometry y="56" width="170" height="30" as="geometry" />
        </mxCell>
        <mxCell id="Gj214TnAQ4UsBlxBKr0H-72" value="maxAmountOfGrass" style="text;html=1;align=center;verticalAlign=middle;resizable=0;points=[];autosize=1;strokeColor=none;fillColor=none;" parent="Gj214TnAQ4UsBlxBKr0H-69" vertex="1">
          <mxGeometry y="86" width="170" height="30" as="geometry" />
        </mxCell>
        <mxCell id="Gj214TnAQ4UsBlxBKr0H-73" value="maxAmountOfWood" style="text;html=1;align=center;verticalAlign=middle;resizable=0;points=[];autosize=1;strokeColor=none;fillColor=none;" parent="Gj214TnAQ4UsBlxBKr0H-69" vertex="1">
          <mxGeometry y="116" width="170" height="30" as="geometry" />
        </mxCell>
        <mxCell id="Gj214TnAQ4UsBlxBKr0H-74" value="leaveGrowthCoef" style="text;html=1;align=center;verticalAlign=middle;resizable=0;points=[];autosize=1;strokeColor=none;fillColor=none;" parent="Gj214TnAQ4UsBlxBKr0H-69" vertex="1">
          <mxGeometry y="146" width="170" height="30" as="geometry" />
        </mxCell>
        <mxCell id="Gj214TnAQ4UsBlxBKr0H-75" value="fruitGrowthCoef" style="text;html=1;align=center;verticalAlign=middle;resizable=0;points=[];autosize=1;strokeColor=none;fillColor=none;" parent="Gj214TnAQ4UsBlxBKr0H-69" vertex="1">
          <mxGeometry y="176" width="170" height="30" as="geometry" />
        </mxCell>
        <mxCell id="Gj214TnAQ4UsBlxBKr0H-76" value="grassGrowthCoef" style="text;html=1;align=center;verticalAlign=middle;resizable=0;points=[];autosize=1;strokeColor=none;fillColor=none;" parent="Gj214TnAQ4UsBlxBKr0H-69" vertex="1">
          <mxGeometry y="206" width="170" height="30" as="geometry" />
        </mxCell>
        <mxCell id="Gj214TnAQ4UsBlxBKr0H-77" value="woodGrowthCoef" style="text;html=1;align=center;verticalAlign=middle;resizable=0;points=[];autosize=1;strokeColor=none;fillColor=none;" parent="Gj214TnAQ4UsBlxBKr0H-69" vertex="1">
          <mxGeometry y="236" width="170" height="30" as="geometry" />
        </mxCell>
        <mxCell id="Gj214TnAQ4UsBlxBKr0H-78" value="" style="line;html=1;strokeWidth=1;align=left;verticalAlign=middle;spacingTop=-1;spacingLeft=3;spacingRight=3;rotatable=0;labelPosition=right;points=[];portConstraint=eastwest;" parent="Gj214TnAQ4UsBlxBKr0H-69" vertex="1">
          <mxGeometry y="266" width="170" height="8" as="geometry" />
        </mxCell>
        <mxCell id="Gj214TnAQ4UsBlxBKr0H-79" value="SangreCell" style="swimlane;fontStyle=0;align=center;verticalAlign=top;childLayout=stackLayout;horizontal=1;startSize=26;horizontalStack=0;resizeParent=1;resizeLast=0;collapsible=1;marginBottom=0;rounded=0;shadow=0;strokeWidth=1;" parent="WIyWlLk6GJQsqaUBKTNV-1" vertex="1">
          <mxGeometry x="1110" y="624" width="170" height="274" as="geometry">
            <mxRectangle x="340" y="380" width="170" height="26" as="alternateBounds" />
          </mxGeometry>
        </mxCell>
        <mxCell id="Gj214TnAQ4UsBlxBKr0H-80" value="maxAmountOfLeaves" style="text;html=1;align=center;verticalAlign=middle;resizable=0;points=[];autosize=1;strokeColor=none;fillColor=none;" parent="Gj214TnAQ4UsBlxBKr0H-79" vertex="1">
          <mxGeometry y="26" width="170" height="30" as="geometry" />
        </mxCell>
        <mxCell id="Gj214TnAQ4UsBlxBKr0H-81" value="maxAmountOfFruits" style="text;html=1;align=center;verticalAlign=middle;resizable=0;points=[];autosize=1;strokeColor=none;fillColor=none;" parent="Gj214TnAQ4UsBlxBKr0H-79" vertex="1">
          <mxGeometry y="56" width="170" height="30" as="geometry" />
        </mxCell>
        <mxCell id="Gj214TnAQ4UsBlxBKr0H-82" value="maxAmountOfGrass" style="text;html=1;align=center;verticalAlign=middle;resizable=0;points=[];autosize=1;strokeColor=none;fillColor=none;" parent="Gj214TnAQ4UsBlxBKr0H-79" vertex="1">
          <mxGeometry y="86" width="170" height="30" as="geometry" />
        </mxCell>
        <mxCell id="Gj214TnAQ4UsBlxBKr0H-83" value="maxAmountOfWood" style="text;html=1;align=center;verticalAlign=middle;resizable=0;points=[];autosize=1;strokeColor=none;fillColor=none;" parent="Gj214TnAQ4UsBlxBKr0H-79" vertex="1">
          <mxGeometry y="116" width="170" height="30" as="geometry" />
        </mxCell>
        <mxCell id="Gj214TnAQ4UsBlxBKr0H-84" value="leaveGrowthCoef" style="text;html=1;align=center;verticalAlign=middle;resizable=0;points=[];autosize=1;strokeColor=none;fillColor=none;" parent="Gj214TnAQ4UsBlxBKr0H-79" vertex="1">
          <mxGeometry y="146" width="170" height="30" as="geometry" />
        </mxCell>
        <mxCell id="Gj214TnAQ4UsBlxBKr0H-85" value="fruitGrowthCoef" style="text;html=1;align=center;verticalAlign=middle;resizable=0;points=[];autosize=1;strokeColor=none;fillColor=none;" parent="Gj214TnAQ4UsBlxBKr0H-79" vertex="1">
          <mxGeometry y="176" width="170" height="30" as="geometry" />
        </mxCell>
        <mxCell id="Gj214TnAQ4UsBlxBKr0H-86" value="grassGrowthCoef" style="text;html=1;align=center;verticalAlign=middle;resizable=0;points=[];autosize=1;strokeColor=none;fillColor=none;" parent="Gj214TnAQ4UsBlxBKr0H-79" vertex="1">
          <mxGeometry y="206" width="170" height="30" as="geometry" />
        </mxCell>
        <mxCell id="Gj214TnAQ4UsBlxBKr0H-87" value="woodGrowthCoef" style="text;html=1;align=center;verticalAlign=middle;resizable=0;points=[];autosize=1;strokeColor=none;fillColor=none;" parent="Gj214TnAQ4UsBlxBKr0H-79" vertex="1">
          <mxGeometry y="236" width="170" height="30" as="geometry" />
        </mxCell>
        <mxCell id="Gj214TnAQ4UsBlxBKr0H-88" value="" style="line;html=1;strokeWidth=1;align=left;verticalAlign=middle;spacingTop=-1;spacingLeft=3;spacingRight=3;rotatable=0;labelPosition=right;points=[];portConstraint=eastwest;" parent="Gj214TnAQ4UsBlxBKr0H-79" vertex="1">
          <mxGeometry y="266" width="170" height="8" as="geometry" />
        </mxCell>
        <mxCell id="Gj214TnAQ4UsBlxBKr0H-89" value="BaldiolCell" style="swimlane;fontStyle=0;align=center;verticalAlign=top;childLayout=stackLayout;horizontal=1;startSize=26;horizontalStack=0;resizeParent=1;resizeLast=0;collapsible=1;marginBottom=0;rounded=0;shadow=0;strokeWidth=1;" parent="WIyWlLk6GJQsqaUBKTNV-1" vertex="1">
          <mxGeometry x="1470" y="624" width="170" height="274" as="geometry">
            <mxRectangle x="340" y="380" width="170" height="26" as="alternateBounds" />
          </mxGeometry>
        </mxCell>
        <mxCell id="Gj214TnAQ4UsBlxBKr0H-90" value="maxAmountOfLeaves" style="text;html=1;align=center;verticalAlign=middle;resizable=0;points=[];autosize=1;strokeColor=none;fillColor=none;" parent="Gj214TnAQ4UsBlxBKr0H-89" vertex="1">
          <mxGeometry y="26" width="170" height="30" as="geometry" />
        </mxCell>
        <mxCell id="Gj214TnAQ4UsBlxBKr0H-91" value="maxAmountOfFruits" style="text;html=1;align=center;verticalAlign=middle;resizable=0;points=[];autosize=1;strokeColor=none;fillColor=none;" parent="Gj214TnAQ4UsBlxBKr0H-89" vertex="1">
          <mxGeometry y="56" width="170" height="30" as="geometry" />
        </mxCell>
        <mxCell id="Gj214TnAQ4UsBlxBKr0H-92" value="maxAmountOfGrass" style="text;html=1;align=center;verticalAlign=middle;resizable=0;points=[];autosize=1;strokeColor=none;fillColor=none;" parent="Gj214TnAQ4UsBlxBKr0H-89" vertex="1">
          <mxGeometry y="86" width="170" height="30" as="geometry" />
        </mxCell>
        <mxCell id="Gj214TnAQ4UsBlxBKr0H-93" value="maxAmountOfWood" style="text;html=1;align=center;verticalAlign=middle;resizable=0;points=[];autosize=1;strokeColor=none;fillColor=none;" parent="Gj214TnAQ4UsBlxBKr0H-89" vertex="1">
          <mxGeometry y="116" width="170" height="30" as="geometry" />
        </mxCell>
        <mxCell id="Gj214TnAQ4UsBlxBKr0H-94" value="leaveGrowthCoef" style="text;html=1;align=center;verticalAlign=middle;resizable=0;points=[];autosize=1;strokeColor=none;fillColor=none;" parent="Gj214TnAQ4UsBlxBKr0H-89" vertex="1">
          <mxGeometry y="146" width="170" height="30" as="geometry" />
        </mxCell>
        <mxCell id="Gj214TnAQ4UsBlxBKr0H-95" value="fruitGrowthCoef" style="text;html=1;align=center;verticalAlign=middle;resizable=0;points=[];autosize=1;strokeColor=none;fillColor=none;" parent="Gj214TnAQ4UsBlxBKr0H-89" vertex="1">
          <mxGeometry y="176" width="170" height="30" as="geometry" />
        </mxCell>
        <mxCell id="Gj214TnAQ4UsBlxBKr0H-96" value="grassGrowthCoef" style="text;html=1;align=center;verticalAlign=middle;resizable=0;points=[];autosize=1;strokeColor=none;fillColor=none;" parent="Gj214TnAQ4UsBlxBKr0H-89" vertex="1">
          <mxGeometry y="206" width="170" height="30" as="geometry" />
        </mxCell>
        <mxCell id="Gj214TnAQ4UsBlxBKr0H-97" value="woodGrowthCoef" style="text;html=1;align=center;verticalAlign=middle;resizable=0;points=[];autosize=1;strokeColor=none;fillColor=none;" parent="Gj214TnAQ4UsBlxBKr0H-89" vertex="1">
          <mxGeometry y="236" width="170" height="30" as="geometry" />
        </mxCell>
        <mxCell id="Gj214TnAQ4UsBlxBKr0H-98" value="" style="line;html=1;strokeWidth=1;align=left;verticalAlign=middle;spacingTop=-1;spacingLeft=3;spacingRight=3;rotatable=0;labelPosition=right;points=[];portConstraint=eastwest;" parent="Gj214TnAQ4UsBlxBKr0H-89" vertex="1">
          <mxGeometry y="266" width="170" height="8" as="geometry" />
        </mxCell>
        <mxCell id="Gj214TnAQ4UsBlxBKr0H-99" value="SeenoCell" style="swimlane;fontStyle=0;align=center;verticalAlign=top;childLayout=stackLayout;horizontal=1;startSize=26;horizontalStack=0;resizeParent=1;resizeLast=0;collapsible=1;marginBottom=0;rounded=0;shadow=0;strokeWidth=1;" parent="WIyWlLk6GJQsqaUBKTNV-1" vertex="1">
          <mxGeometry x="1290" y="624" width="170" height="274" as="geometry">
            <mxRectangle x="340" y="380" width="170" height="26" as="alternateBounds" />
          </mxGeometry>
        </mxCell>
        <mxCell id="Gj214TnAQ4UsBlxBKr0H-100" value="maxAmountOfLeaves" style="text;html=1;align=center;verticalAlign=middle;resizable=0;points=[];autosize=1;strokeColor=none;fillColor=none;" parent="Gj214TnAQ4UsBlxBKr0H-99" vertex="1">
          <mxGeometry y="26" width="170" height="30" as="geometry" />
        </mxCell>
        <mxCell id="Gj214TnAQ4UsBlxBKr0H-101" value="maxAmountOfFruits" style="text;html=1;align=center;verticalAlign=middle;resizable=0;points=[];autosize=1;strokeColor=none;fillColor=none;" parent="Gj214TnAQ4UsBlxBKr0H-99" vertex="1">
          <mxGeometry y="56" width="170" height="30" as="geometry" />
        </mxCell>
        <mxCell id="Gj214TnAQ4UsBlxBKr0H-102" value="maxAmountOfGrass" style="text;html=1;align=center;verticalAlign=middle;resizable=0;points=[];autosize=1;strokeColor=none;fillColor=none;" parent="Gj214TnAQ4UsBlxBKr0H-99" vertex="1">
          <mxGeometry y="86" width="170" height="30" as="geometry" />
        </mxCell>
        <mxCell id="Gj214TnAQ4UsBlxBKr0H-103" value="maxAmountOfWood" style="text;html=1;align=center;verticalAlign=middle;resizable=0;points=[];autosize=1;strokeColor=none;fillColor=none;" parent="Gj214TnAQ4UsBlxBKr0H-99" vertex="1">
          <mxGeometry y="116" width="170" height="30" as="geometry" />
        </mxCell>
        <mxCell id="Gj214TnAQ4UsBlxBKr0H-104" value="leaveGrowthCoef" style="text;html=1;align=center;verticalAlign=middle;resizable=0;points=[];autosize=1;strokeColor=none;fillColor=none;" parent="Gj214TnAQ4UsBlxBKr0H-99" vertex="1">
          <mxGeometry y="146" width="170" height="30" as="geometry" />
        </mxCell>
        <mxCell id="Gj214TnAQ4UsBlxBKr0H-105" value="fruitGrowthCoef" style="text;html=1;align=center;verticalAlign=middle;resizable=0;points=[];autosize=1;strokeColor=none;fillColor=none;" parent="Gj214TnAQ4UsBlxBKr0H-99" vertex="1">
          <mxGeometry y="176" width="170" height="30" as="geometry" />
        </mxCell>
        <mxCell id="Gj214TnAQ4UsBlxBKr0H-106" value="grassGrowthCoef" style="text;html=1;align=center;verticalAlign=middle;resizable=0;points=[];autosize=1;strokeColor=none;fillColor=none;" parent="Gj214TnAQ4UsBlxBKr0H-99" vertex="1">
          <mxGeometry y="206" width="170" height="30" as="geometry" />
        </mxCell>
        <mxCell id="Gj214TnAQ4UsBlxBKr0H-107" value="woodGrowthCoef" style="text;html=1;align=center;verticalAlign=middle;resizable=0;points=[];autosize=1;strokeColor=none;fillColor=none;" parent="Gj214TnAQ4UsBlxBKr0H-99" vertex="1">
          <mxGeometry y="236" width="170" height="30" as="geometry" />
        </mxCell>
        <mxCell id="Gj214TnAQ4UsBlxBKr0H-108" value="" style="line;html=1;strokeWidth=1;align=left;verticalAlign=middle;spacingTop=-1;spacingLeft=3;spacingRight=3;rotatable=0;labelPosition=right;points=[];portConstraint=eastwest;" parent="Gj214TnAQ4UsBlxBKr0H-99" vertex="1">
          <mxGeometry y="266" width="170" height="8" as="geometry" />
        </mxCell>
        <mxCell id="Gj214TnAQ4UsBlxBKr0H-109" value="" style="endArrow=block;endSize=10;endFill=0;shadow=0;strokeWidth=1;rounded=0;edgeStyle=elbowEdgeStyle;elbow=vertical;" parent="WIyWlLk6GJQsqaUBKTNV-1" source="Gj214TnAQ4UsBlxBKr0H-89" target="Gj214TnAQ4UsBlxBKr0H-41" edge="1">
          <mxGeometry width="160" relative="1" as="geometry">
            <mxPoint x="1570" y="839" as="sourcePoint" />
            <mxPoint x="1360" y="793" as="targetPoint" />
          </mxGeometry>
        </mxCell>
        <mxCell id="Gj214TnAQ4UsBlxBKr0H-110" value="" style="endArrow=block;endSize=10;endFill=0;shadow=0;strokeWidth=1;rounded=0;edgeStyle=elbowEdgeStyle;elbow=vertical;" parent="WIyWlLk6GJQsqaUBKTNV-1" source="Gj214TnAQ4UsBlxBKr0H-99" target="Gj214TnAQ4UsBlxBKr0H-41" edge="1">
          <mxGeometry width="160" relative="1" as="geometry">
            <mxPoint x="1580" y="849" as="sourcePoint" />
            <mxPoint x="1300" y="604" as="targetPoint" />
          </mxGeometry>
        </mxCell>
        <mxCell id="Gj214TnAQ4UsBlxBKr0H-111" value="" style="endArrow=block;endSize=10;endFill=0;shadow=0;strokeWidth=1;rounded=0;edgeStyle=elbowEdgeStyle;elbow=vertical;" parent="WIyWlLk6GJQsqaUBKTNV-1" source="Gj214TnAQ4UsBlxBKr0H-79" target="Gj214TnAQ4UsBlxBKr0H-41" edge="1">
          <mxGeometry width="160" relative="1" as="geometry">
            <mxPoint x="1590" y="859" as="sourcePoint" />
            <mxPoint x="1190" y="644" as="targetPoint" />
          </mxGeometry>
        </mxCell>
        <mxCell id="Gj214TnAQ4UsBlxBKr0H-112" value="" style="endArrow=block;endSize=10;endFill=0;shadow=0;strokeWidth=1;rounded=0;edgeStyle=elbowEdgeStyle;elbow=vertical;" parent="WIyWlLk6GJQsqaUBKTNV-1" source="Gj214TnAQ4UsBlxBKr0H-69" target="Gj214TnAQ4UsBlxBKr0H-41" edge="1">
          <mxGeometry width="160" relative="1" as="geometry">
            <mxPoint x="1600" y="869" as="sourcePoint" />
            <mxPoint x="1320" y="624" as="targetPoint" />
          </mxGeometry>
        </mxCell>
        <mxCell id="Gj214TnAQ4UsBlxBKr0H-113" style="endArrow=none;html=1;rounded=0;edgeStyle=orthogonalEdgeStyle;" parent="WIyWlLk6GJQsqaUBKTNV-1" source="Gj214TnAQ4UsBlxBKr0H-0" target="Gj214TnAQ4UsBlxBKr0H-41" edge="1">
          <mxGeometry relative="1" as="geometry">
            <mxPoint x="740" y="209.04761904761904" as="sourcePoint" />
            <mxPoint x="1210" y="203" as="targetPoint" />
            <Array as="points">
              <mxPoint x="990" y="120" />
              <mxPoint x="990" y="120" />
            </Array>
          </mxGeometry>
        </mxCell>
        <mxCell id="Gj214TnAQ4UsBlxBKr0H-114" value="is located &amp;gt;" style="edgeLabel;html=1;align=center;verticalAlign=middle;resizable=0;points=[];" parent="Gj214TnAQ4UsBlxBKr0H-113" connectable="0" vertex="1">
          <mxGeometry x="0.0143" y="3" relative="1" as="geometry">
            <mxPoint as="offset" />
          </mxGeometry>
        </mxCell>
        <mxCell id="Gj214TnAQ4UsBlxBKr0H-121" value="1" style="resizable=0;align=right;verticalAlign=bottom;labelBackgroundColor=none;fontSize=12;" parent="WIyWlLk6GJQsqaUBKTNV-1" connectable="0" vertex="1">
          <mxGeometry x="390.0000000000001" y="119.99999999999994" as="geometry" />
        </mxCell>
        <mxCell id="Gj214TnAQ4UsBlxBKr0H-122" value="1" style="resizable=0;align=right;verticalAlign=bottom;labelBackgroundColor=none;fontSize=12;" parent="WIyWlLk6GJQsqaUBKTNV-1" connectable="0" vertex="1">
          <mxGeometry x="1200" y="373.99999999999994" as="geometry" />
        </mxCell>
      </root>
    </mxGraphModel>
  </diagram>
  <diagram name="Copie de Page-1" id="uKSXFZN_4vbbgqoTu4pe">
    <mxGraphModel dx="1434" dy="766" grid="1" gridSize="10" guides="1" tooltips="1" connect="1" arrows="1" fold="1" page="1" pageScale="1" pageWidth="827" pageHeight="1169" math="0" shadow="0">
      <root>
        <mxCell id="DfuE95c9C4esKyed2T_T-0" />
        <mxCell id="DfuE95c9C4esKyed2T_T-1" parent="DfuE95c9C4esKyed2T_T-0" />
        <mxCell id="DfuE95c9C4esKyed2T_T-2" value="Agent" style="swimlane;fontStyle=2;align=center;verticalAlign=top;childLayout=stackLayout;horizontal=1;startSize=26;horizontalStack=0;resizeParent=1;resizeLast=0;collapsible=1;marginBottom=0;rounded=0;shadow=0;strokeWidth=1;" vertex="1" parent="DfuE95c9C4esKyed2T_T-1">
          <mxGeometry x="220" y="60" width="160" height="554" as="geometry">
            <mxRectangle x="230" y="140" width="160" height="26" as="alternateBounds" />
          </mxGeometry>
        </mxCell>
        <mxCell id="DfuE95c9C4esKyed2T_T-3" value="amountOfWood" style="text;html=1;align=center;verticalAlign=middle;resizable=0;points=[];autosize=1;strokeColor=none;fillColor=none;" vertex="1" parent="DfuE95c9C4esKyed2T_T-2">
          <mxGeometry y="26" width="160" height="30" as="geometry" />
        </mxCell>
        <mxCell id="DfuE95c9C4esKyed2T_T-4" value="amountOfLeaves" style="text;html=1;align=center;verticalAlign=middle;resizable=0;points=[];autosize=1;strokeColor=none;fillColor=none;" vertex="1" parent="DfuE95c9C4esKyed2T_T-2">
          <mxGeometry y="56" width="160" height="30" as="geometry" />
        </mxCell>
        <mxCell id="DfuE95c9C4esKyed2T_T-5" value="amountOfFruits" style="text;html=1;align=center;verticalAlign=middle;resizable=0;points=[];autosize=1;strokeColor=none;fillColor=none;" vertex="1" parent="DfuE95c9C4esKyed2T_T-2">
          <mxGeometry y="86" width="160" height="30" as="geometry" />
        </mxCell>
        <mxCell id="DfuE95c9C4esKyed2T_T-6" value="amountOfGrass" style="text;html=1;align=center;verticalAlign=middle;resizable=0;points=[];autosize=1;strokeColor=none;fillColor=none;" vertex="1" parent="DfuE95c9C4esKyed2T_T-2">
          <mxGeometry y="116" width="160" height="30" as="geometry" />
        </mxCell>
        <mxCell id="DfuE95c9C4esKyed2T_T-7" value="maxAmountOfWood" style="text;html=1;align=center;verticalAlign=middle;resizable=0;points=[];autosize=1;strokeColor=none;fillColor=none;" vertex="1" parent="DfuE95c9C4esKyed2T_T-2">
          <mxGeometry y="146" width="160" height="30" as="geometry" />
        </mxCell>
        <mxCell id="DfuE95c9C4esKyed2T_T-8" value="maxAmountOfLeaves" style="text;html=1;align=center;verticalAlign=middle;resizable=0;points=[];autosize=1;strokeColor=none;fillColor=none;" vertex="1" parent="DfuE95c9C4esKyed2T_T-2">
          <mxGeometry y="176" width="160" height="30" as="geometry" />
        </mxCell>
        <mxCell id="DfuE95c9C4esKyed2T_T-9" value="maxAmountOfFruits" style="text;html=1;align=center;verticalAlign=middle;resizable=0;points=[];autosize=1;strokeColor=none;fillColor=none;" vertex="1" parent="DfuE95c9C4esKyed2T_T-2">
          <mxGeometry y="206" width="160" height="30" as="geometry" />
        </mxCell>
        <mxCell id="DfuE95c9C4esKyed2T_T-10" value="maxAmountOfGrass" style="text;html=1;align=center;verticalAlign=middle;resizable=0;points=[];autosize=1;strokeColor=none;fillColor=none;" vertex="1" parent="DfuE95c9C4esKyed2T_T-2">
          <mxGeometry y="236" width="160" height="30" as="geometry" />
        </mxCell>
        <mxCell id="DfuE95c9C4esKyed2T_T-11" value="" style="line;html=1;strokeWidth=1;align=left;verticalAlign=middle;spacingTop=-1;spacingLeft=3;spacingRight=3;rotatable=0;labelPosition=right;points=[];portConstraint=eastwest;" vertex="1" parent="DfuE95c9C4esKyed2T_T-2">
          <mxGeometry y="266" width="160" height="8" as="geometry" />
        </mxCell>
        <mxCell id="DfuE95c9C4esKyed2T_T-12" value="&lt;div&gt;collectWood()&lt;/div&gt;" style="text;html=1;align=center;verticalAlign=middle;resizable=0;points=[];autosize=1;strokeColor=none;fillColor=none;" vertex="1" parent="DfuE95c9C4esKyed2T_T-2">
          <mxGeometry y="274" width="160" height="30" as="geometry" />
        </mxCell>
        <mxCell id="DfuE95c9C4esKyed2T_T-13" value="&lt;div&gt;collectLeaves()&lt;/div&gt;" style="text;html=1;align=center;verticalAlign=middle;resizable=0;points=[];autosize=1;strokeColor=none;fillColor=none;" vertex="1" parent="DfuE95c9C4esKyed2T_T-2">
          <mxGeometry y="304" width="160" height="30" as="geometry" />
        </mxCell>
        <mxCell id="DfuE95c9C4esKyed2T_T-14" value="&lt;div&gt;collectFruits()&lt;/div&gt;" style="text;html=1;align=center;verticalAlign=middle;resizable=0;points=[];autosize=1;strokeColor=none;fillColor=none;" vertex="1" parent="DfuE95c9C4esKyed2T_T-2">
          <mxGeometry y="334" width="160" height="30" as="geometry" />
        </mxCell>
        <mxCell id="DfuE95c9C4esKyed2T_T-15" value="&lt;div&gt;collectGrass()&lt;/div&gt;" style="text;html=1;align=center;verticalAlign=middle;resizable=0;points=[];autosize=1;strokeColor=none;fillColor=none;" vertex="1" parent="DfuE95c9C4esKyed2T_T-2">
          <mxGeometry y="364" width="160" height="30" as="geometry" />
        </mxCell>
        <mxCell id="DfuE95c9C4esKyed2T_T-16" value="&lt;div&gt;consumeWood()&lt;/div&gt;" style="text;html=1;align=center;verticalAlign=middle;resizable=0;points=[];autosize=1;strokeColor=none;fillColor=none;" vertex="1" parent="DfuE95c9C4esKyed2T_T-2">
          <mxGeometry y="394" width="160" height="30" as="geometry" />
        </mxCell>
        <mxCell id="DfuE95c9C4esKyed2T_T-17" value="&lt;div&gt;consumeLeaves()&lt;/div&gt;" style="text;html=1;align=center;verticalAlign=middle;resizable=0;points=[];autosize=1;strokeColor=none;fillColor=none;" vertex="1" parent="DfuE95c9C4esKyed2T_T-2">
          <mxGeometry y="424" width="160" height="30" as="geometry" />
        </mxCell>
        <mxCell id="DfuE95c9C4esKyed2T_T-18" value="&lt;div&gt;consumeFruits()&lt;/div&gt;" style="text;html=1;align=center;verticalAlign=middle;resizable=0;points=[];autosize=1;strokeColor=none;fillColor=none;" vertex="1" parent="DfuE95c9C4esKyed2T_T-2">
          <mxGeometry y="454" width="160" height="30" as="geometry" />
        </mxCell>
        <mxCell id="DfuE95c9C4esKyed2T_T-19" value="&lt;div&gt;consumeGrass()&lt;/div&gt;" style="text;html=1;align=center;verticalAlign=middle;resizable=0;points=[];autosize=1;strokeColor=none;fillColor=none;" vertex="1" parent="DfuE95c9C4esKyed2T_T-2">
          <mxGeometry y="484" width="160" height="30" as="geometry" />
        </mxCell>
        <mxCell id="DfuE95c9C4esKyed2T_T-20" value="&lt;div&gt;move()&lt;/div&gt;" style="text;html=1;align=center;verticalAlign=middle;resizable=0;points=[];autosize=1;strokeColor=none;fillColor=none;" vertex="1" parent="DfuE95c9C4esKyed2T_T-2">
          <mxGeometry y="514" width="160" height="30" as="geometry" />
        </mxCell>
        <mxCell id="DfuE95c9C4esKyed2T_T-21" value="Agro-pastoralist" style="swimlane;fontStyle=0;align=center;verticalAlign=top;childLayout=stackLayout;horizontal=1;startSize=26;horizontalStack=0;resizeParent=1;resizeLast=0;collapsible=1;marginBottom=0;rounded=0;shadow=0;strokeWidth=1;" vertex="1" parent="DfuE95c9C4esKyed2T_T-1">
          <mxGeometry x="80" y="660" width="160" height="66" as="geometry">
            <mxRectangle x="130" y="380" width="160" height="26" as="alternateBounds" />
          </mxGeometry>
        </mxCell>
        <mxCell id="DfuE95c9C4esKyed2T_T-22" value="" style="line;html=1;strokeWidth=1;align=left;verticalAlign=middle;spacingTop=-1;spacingLeft=3;spacingRight=3;rotatable=0;labelPosition=right;points=[];portConstraint=eastwest;" vertex="1" parent="DfuE95c9C4esKyed2T_T-21">
          <mxGeometry y="26" width="160" height="8" as="geometry" />
        </mxCell>
        <mxCell id="DfuE95c9C4esKyed2T_T-23" value="cultivateCrops()" style="text;html=1;align=center;verticalAlign=middle;resizable=0;points=[];autosize=1;strokeColor=none;fillColor=none;" vertex="1" parent="DfuE95c9C4esKyed2T_T-21">
          <mxGeometry y="34" width="160" height="30" as="geometry" />
        </mxCell>
        <mxCell id="DfuE95c9C4esKyed2T_T-24" value="" style="endArrow=block;endSize=10;endFill=0;shadow=0;strokeWidth=1;rounded=0;edgeStyle=elbowEdgeStyle;elbow=vertical;" edge="1" parent="DfuE95c9C4esKyed2T_T-1" source="DfuE95c9C4esKyed2T_T-21" target="DfuE95c9C4esKyed2T_T-2">
          <mxGeometry width="160" relative="1" as="geometry">
            <mxPoint x="120" y="343" as="sourcePoint" />
            <mxPoint x="120" y="343" as="targetPoint" />
          </mxGeometry>
        </mxCell>
        <mxCell id="DfuE95c9C4esKyed2T_T-25" value="" style="endArrow=none;html=1;rounded=0;edgeStyle=orthogonalEdgeStyle;" edge="1" parent="DfuE95c9C4esKyed2T_T-1" source="DfuE95c9C4esKyed2T_T-27" target="DfuE95c9C4esKyed2T_T-41">
          <mxGeometry relative="1" as="geometry" />
        </mxCell>
        <mxCell id="DfuE95c9C4esKyed2T_T-26" value="has &amp;gt;" style="edgeLabel;html=1;align=center;verticalAlign=middle;resizable=0;points=[];" connectable="0" vertex="1" parent="DfuE95c9C4esKyed2T_T-25">
          <mxGeometry x="-0.0299" y="-2" relative="1" as="geometry">
            <mxPoint as="offset" />
          </mxGeometry>
        </mxCell>
        <mxCell id="DfuE95c9C4esKyed2T_T-27" value="Pastor" style="swimlane;fontStyle=0;align=center;verticalAlign=top;childLayout=stackLayout;horizontal=1;startSize=26;horizontalStack=0;resizeParent=1;resizeLast=0;collapsible=1;marginBottom=0;rounded=0;shadow=0;strokeWidth=1;" vertex="1" parent="DfuE95c9C4esKyed2T_T-1">
          <mxGeometry x="420" y="660" width="160" height="124" as="geometry">
            <mxRectangle x="340" y="380" width="170" height="26" as="alternateBounds" />
          </mxGeometry>
        </mxCell>
        <mxCell id="DfuE95c9C4esKyed2T_T-28" value="" style="line;html=1;strokeWidth=1;align=left;verticalAlign=middle;spacingTop=-1;spacingLeft=3;spacingRight=3;rotatable=0;labelPosition=right;points=[];portConstraint=eastwest;" vertex="1" parent="DfuE95c9C4esKyed2T_T-27">
          <mxGeometry y="26" width="160" height="8" as="geometry" />
        </mxCell>
        <mxCell id="DfuE95c9C4esKyed2T_T-29" value="&lt;div&gt;setNewStatus()&lt;/div&gt;" style="text;html=1;align=center;verticalAlign=middle;resizable=0;points=[];autosize=1;strokeColor=none;fillColor=none;" vertex="1" parent="DfuE95c9C4esKyed2T_T-27">
          <mxGeometry y="34" width="160" height="30" as="geometry" />
        </mxCell>
        <mxCell id="DfuE95c9C4esKyed2T_T-30" value="&lt;div&gt;becomeTranshumant()&lt;/div&gt;" style="text;html=1;align=center;verticalAlign=middle;resizable=0;points=[];autosize=1;strokeColor=none;fillColor=none;" vertex="1" parent="DfuE95c9C4esKyed2T_T-27">
          <mxGeometry y="64" width="160" height="30" as="geometry" />
        </mxCell>
        <mxCell id="DfuE95c9C4esKyed2T_T-31" value="&lt;div&gt;becomeSettled()&lt;/div&gt;" style="text;html=1;align=center;verticalAlign=middle;resizable=0;points=[];autosize=1;strokeColor=none;fillColor=none;" vertex="1" parent="DfuE95c9C4esKyed2T_T-27">
          <mxGeometry y="94" width="160" height="30" as="geometry" />
        </mxCell>
        <mxCell id="DfuE95c9C4esKyed2T_T-32" value="" style="endArrow=block;endSize=10;endFill=0;shadow=0;strokeWidth=1;rounded=0;edgeStyle=elbowEdgeStyle;elbow=vertical;" edge="1" parent="DfuE95c9C4esKyed2T_T-1" source="DfuE95c9C4esKyed2T_T-27" target="DfuE95c9C4esKyed2T_T-2">
          <mxGeometry width="160" relative="1" as="geometry">
            <mxPoint x="130" y="513" as="sourcePoint" />
            <mxPoint x="230" y="411" as="targetPoint" />
          </mxGeometry>
        </mxCell>
        <mxCell id="DfuE95c9C4esKyed2T_T-33" value="Village" style="swimlane;fontStyle=0;align=center;verticalAlign=top;childLayout=stackLayout;horizontal=1;startSize=26;horizontalStack=0;resizeParent=1;resizeLast=0;collapsible=1;marginBottom=0;rounded=0;shadow=0;strokeWidth=1;" vertex="1" parent="DfuE95c9C4esKyed2T_T-1">
          <mxGeometry x="570" y="160" width="160" height="92" as="geometry">
            <mxRectangle x="550" y="140" width="160" height="26" as="alternateBounds" />
          </mxGeometry>
        </mxCell>
        <mxCell id="DfuE95c9C4esKyed2T_T-34" value="numberOfAgents" style="text;align=left;verticalAlign=top;spacingLeft=4;spacingRight=4;overflow=hidden;rotatable=0;points=[[0,0.5],[1,0.5]];portConstraint=eastwest;" vertex="1" parent="DfuE95c9C4esKyed2T_T-33">
          <mxGeometry y="26" width="160" height="26" as="geometry" />
        </mxCell>
        <mxCell id="DfuE95c9C4esKyed2T_T-35" value="" style="line;html=1;strokeWidth=1;align=left;verticalAlign=middle;spacingTop=-1;spacingLeft=3;spacingRight=3;rotatable=0;labelPosition=right;points=[];portConstraint=eastwest;" vertex="1" parent="DfuE95c9C4esKyed2T_T-33">
          <mxGeometry y="52" width="160" height="10" as="geometry" />
        </mxCell>
        <mxCell id="DfuE95c9C4esKyed2T_T-36" value="&lt;div&gt;consumeWood()&lt;/div&gt;" style="text;html=1;align=center;verticalAlign=middle;resizable=0;points=[];autosize=1;strokeColor=none;fillColor=none;" vertex="1" parent="DfuE95c9C4esKyed2T_T-33">
          <mxGeometry y="62" width="160" height="30" as="geometry" />
        </mxCell>
        <mxCell id="DfuE95c9C4esKyed2T_T-37" value="" style="endArrow=none;html=1;rounded=0;edgeStyle=orthogonalEdgeStyle;" edge="1" parent="DfuE95c9C4esKyed2T_T-1" source="DfuE95c9C4esKyed2T_T-2" target="DfuE95c9C4esKyed2T_T-33">
          <mxGeometry x="0.5" y="41" relative="1" as="geometry">
            <mxPoint x="300" y="332" as="sourcePoint" />
            <mxPoint x="500" y="220" as="targetPoint" />
            <mxPoint x="-40" y="32" as="offset" />
            <Array as="points">
              <mxPoint x="520" y="240" />
              <mxPoint x="520" y="240" />
            </Array>
          </mxGeometry>
        </mxCell>
        <mxCell id="DfuE95c9C4esKyed2T_T-38" value="0..n" style="resizable=0;align=left;verticalAlign=bottom;labelBackgroundColor=none;fontSize=12;" connectable="0" vertex="1" parent="DfuE95c9C4esKyed2T_T-37">
          <mxGeometry x="-1" relative="1" as="geometry">
            <mxPoint y="4" as="offset" />
          </mxGeometry>
        </mxCell>
        <mxCell id="DfuE95c9C4esKyed2T_T-39" value="1" style="resizable=0;align=right;verticalAlign=bottom;labelBackgroundColor=none;fontSize=12;" connectable="0" vertex="1" parent="DfuE95c9C4esKyed2T_T-37">
          <mxGeometry x="1" relative="1" as="geometry">
            <mxPoint x="170" y="-50" as="offset" />
          </mxGeometry>
        </mxCell>
        <mxCell id="DfuE95c9C4esKyed2T_T-40" value="lives at &amp;gt;" style="text;html=1;resizable=0;points=[];;align=center;verticalAlign=middle;labelBackgroundColor=none;rounded=0;shadow=0;strokeWidth=1;fontSize=12;" connectable="0" vertex="1" parent="DfuE95c9C4esKyed2T_T-37">
          <mxGeometry x="0.5" y="49" relative="1" as="geometry">
            <mxPoint x="-38" y="40" as="offset" />
          </mxGeometry>
        </mxCell>
        <mxCell id="DfuE95c9C4esKyed2T_T-41" value="Status" style="swimlane;fontStyle=0;align=center;verticalAlign=top;childLayout=stackLayout;horizontal=1;startSize=26;horizontalStack=0;resizeParent=1;resizeLast=0;collapsible=1;marginBottom=0;rounded=0;shadow=0;strokeWidth=1;" vertex="1" parent="DfuE95c9C4esKyed2T_T-1">
          <mxGeometry x="700" y="795" width="160" height="70" as="geometry">
            <mxRectangle x="340" y="380" width="170" height="26" as="alternateBounds" />
          </mxGeometry>
        </mxCell>
        <mxCell id="DfuE95c9C4esKyed2T_T-42" value="" style="line;html=1;strokeWidth=1;align=left;verticalAlign=middle;spacingTop=-1;spacingLeft=3;spacingRight=3;rotatable=0;labelPosition=right;points=[];portConstraint=eastwest;" vertex="1" parent="DfuE95c9C4esKyed2T_T-41">
          <mxGeometry y="26" width="160" height="8" as="geometry" />
        </mxCell>
        <mxCell id="DfuE95c9C4esKyed2T_T-43" value="Cell" style="swimlane;fontStyle=0;align=center;verticalAlign=top;childLayout=stackLayout;horizontal=1;startSize=26;horizontalStack=0;resizeParent=1;resizeLast=0;collapsible=1;marginBottom=0;rounded=0;shadow=0;strokeWidth=1;" vertex="1" parent="DfuE95c9C4esKyed2T_T-1">
          <mxGeometry x="1210" y="300" width="160" height="274" as="geometry">
            <mxRectangle x="550" y="140" width="160" height="26" as="alternateBounds" />
          </mxGeometry>
        </mxCell>
        <mxCell id="DfuE95c9C4esKyed2T_T-44" value="amountOfLeaves" style="text;align=left;verticalAlign=top;spacingLeft=4;spacingRight=4;overflow=hidden;rotatable=0;points=[[0,0.5],[1,0.5]];portConstraint=eastwest;" vertex="1" parent="DfuE95c9C4esKyed2T_T-43">
          <mxGeometry y="26" width="160" height="26" as="geometry" />
        </mxCell>
        <mxCell id="DfuE95c9C4esKyed2T_T-45" value="amountOfFruits" style="text;align=left;verticalAlign=top;spacingLeft=4;spacingRight=4;overflow=hidden;rotatable=0;points=[[0,0.5],[1,0.5]];portConstraint=eastwest;" vertex="1" parent="DfuE95c9C4esKyed2T_T-43">
          <mxGeometry y="52" width="160" height="26" as="geometry" />
        </mxCell>
        <mxCell id="DfuE95c9C4esKyed2T_T-46" value="amountOfGrass" style="text;align=left;verticalAlign=top;spacingLeft=4;spacingRight=4;overflow=hidden;rotatable=0;points=[[0,0.5],[1,0.5]];portConstraint=eastwest;" vertex="1" parent="DfuE95c9C4esKyed2T_T-43">
          <mxGeometry y="78" width="160" height="26" as="geometry" />
        </mxCell>
        <mxCell id="DfuE95c9C4esKyed2T_T-47" value="amountOfWood" style="text;align=left;verticalAlign=top;spacingLeft=4;spacingRight=4;overflow=hidden;rotatable=0;points=[[0,0.5],[1,0.5]];portConstraint=eastwest;" vertex="1" parent="DfuE95c9C4esKyed2T_T-43">
          <mxGeometry y="104" width="160" height="26" as="geometry" />
        </mxCell>
        <mxCell id="DfuE95c9C4esKyed2T_T-48" value="hasVillage" style="text;align=left;verticalAlign=top;spacingLeft=4;spacingRight=4;overflow=hidden;rotatable=0;points=[[0,0.5],[1,0.5]];portConstraint=eastwest;" vertex="1" parent="DfuE95c9C4esKyed2T_T-43">
          <mxGeometry y="130" width="160" height="26" as="geometry" />
        </mxCell>
        <mxCell id="DfuE95c9C4esKyed2T_T-49" value="" style="line;html=1;strokeWidth=1;align=left;verticalAlign=middle;spacingTop=-1;spacingLeft=3;spacingRight=3;rotatable=0;labelPosition=right;points=[];portConstraint=eastwest;" vertex="1" parent="DfuE95c9C4esKyed2T_T-43">
          <mxGeometry y="156" width="160" height="8" as="geometry" />
        </mxCell>
        <mxCell id="DfuE95c9C4esKyed2T_T-50" value="growLeaves()" style="text;align=left;verticalAlign=top;spacingLeft=4;spacingRight=4;overflow=hidden;rotatable=0;points=[[0,0.5],[1,0.5]];portConstraint=eastwest;" vertex="1" parent="DfuE95c9C4esKyed2T_T-43">
          <mxGeometry y="164" width="160" height="26" as="geometry" />
        </mxCell>
        <mxCell id="DfuE95c9C4esKyed2T_T-51" value="growFruits()" style="text;align=left;verticalAlign=top;spacingLeft=4;spacingRight=4;overflow=hidden;rotatable=0;points=[[0,0.5],[1,0.5]];portConstraint=eastwest;" vertex="1" parent="DfuE95c9C4esKyed2T_T-43">
          <mxGeometry y="190" width="160" height="26" as="geometry" />
        </mxCell>
        <mxCell id="DfuE95c9C4esKyed2T_T-52" value="growGrass()" style="text;align=left;verticalAlign=top;spacingLeft=4;spacingRight=4;overflow=hidden;rotatable=0;points=[[0,0.5],[1,0.5]];portConstraint=eastwest;" vertex="1" parent="DfuE95c9C4esKyed2T_T-43">
          <mxGeometry y="216" width="160" height="26" as="geometry" />
        </mxCell>
        <mxCell id="DfuE95c9C4esKyed2T_T-53" value="growWood()" style="text;align=left;verticalAlign=top;spacingLeft=4;spacingRight=4;overflow=hidden;rotatable=0;points=[[0,0.5],[1,0.5]];portConstraint=eastwest;" vertex="1" parent="DfuE95c9C4esKyed2T_T-43">
          <mxGeometry y="242" width="160" height="26" as="geometry" />
        </mxCell>
        <mxCell id="DfuE95c9C4esKyed2T_T-54" value="Cattle" style="swimlane;fontStyle=0;align=center;verticalAlign=top;childLayout=stackLayout;horizontal=1;startSize=26;horizontalStack=0;resizeParent=1;resizeLast=0;collapsible=1;marginBottom=0;rounded=0;shadow=0;strokeWidth=1;" vertex="1" parent="DfuE95c9C4esKyed2T_T-1">
          <mxGeometry x="80" y="910" width="160" height="154" as="geometry">
            <mxRectangle x="340" y="380" width="170" height="26" as="alternateBounds" />
          </mxGeometry>
        </mxCell>
        <mxCell id="DfuE95c9C4esKyed2T_T-55" value="" style="line;html=1;strokeWidth=1;align=left;verticalAlign=middle;spacingTop=-1;spacingLeft=3;spacingRight=3;rotatable=0;labelPosition=right;points=[];portConstraint=eastwest;" vertex="1" parent="DfuE95c9C4esKyed2T_T-54">
          <mxGeometry y="26" width="160" height="8" as="geometry" />
        </mxCell>
        <mxCell id="DfuE95c9C4esKyed2T_T-56" value="&lt;div&gt;consumeLeaves()&lt;/div&gt;" style="text;html=1;align=center;verticalAlign=middle;resizable=0;points=[];autosize=1;strokeColor=none;fillColor=none;" vertex="1" parent="DfuE95c9C4esKyed2T_T-54">
          <mxGeometry y="34" width="160" height="30" as="geometry" />
        </mxCell>
        <mxCell id="DfuE95c9C4esKyed2T_T-57" value="&lt;div&gt;consumeGrass()&lt;/div&gt;" style="text;html=1;align=center;verticalAlign=middle;resizable=0;points=[];autosize=1;strokeColor=none;fillColor=none;" vertex="1" parent="DfuE95c9C4esKyed2T_T-54">
          <mxGeometry y="64" width="160" height="30" as="geometry" />
        </mxCell>
        <mxCell id="DfuE95c9C4esKyed2T_T-58" value="&lt;div&gt;consumeFruits()&lt;/div&gt;" style="text;html=1;align=center;verticalAlign=middle;resizable=0;points=[];autosize=1;strokeColor=none;fillColor=none;" vertex="1" parent="DfuE95c9C4esKyed2T_T-54">
          <mxGeometry y="94" width="160" height="30" as="geometry" />
        </mxCell>
        <mxCell id="DfuE95c9C4esKyed2T_T-59" value="&lt;div&gt;move()&lt;/div&gt;" style="text;html=1;align=center;verticalAlign=middle;resizable=0;points=[];autosize=1;strokeColor=none;fillColor=none;" vertex="1" parent="DfuE95c9C4esKyed2T_T-54">
          <mxGeometry y="124" width="160" height="30" as="geometry" />
        </mxCell>
        <mxCell id="DfuE95c9C4esKyed2T_T-60" style="endArrow=none;html=1;rounded=0;edgeStyle=orthogonalEdgeStyle;" edge="1" parent="DfuE95c9C4esKyed2T_T-1" target="DfuE95c9C4esKyed2T_T-43">
          <mxGeometry relative="1" as="geometry">
            <mxPoint x="730" y="199.04761904761904" as="sourcePoint" />
            <Array as="points">
              <mxPoint x="730" y="193" />
            </Array>
          </mxGeometry>
        </mxCell>
        <mxCell id="DfuE95c9C4esKyed2T_T-61" value="is located &amp;gt;" style="edgeLabel;html=1;align=center;verticalAlign=middle;resizable=0;points=[];" connectable="0" vertex="1" parent="DfuE95c9C4esKyed2T_T-60">
          <mxGeometry x="0.0143" y="3" relative="1" as="geometry">
            <mxPoint as="offset" />
          </mxGeometry>
        </mxCell>
        <mxCell id="DfuE95c9C4esKyed2T_T-62" value="1" style="resizable=0;align=right;verticalAlign=bottom;labelBackgroundColor=none;fontSize=12;" connectable="0" vertex="1" parent="DfuE95c9C4esKyed2T_T-1">
          <mxGeometry x="560.0000000000001" y="239.99999999999994" as="geometry" />
        </mxCell>
        <mxCell id="DfuE95c9C4esKyed2T_T-63" value="" style="endArrow=none;html=1;rounded=0;edgeStyle=orthogonalEdgeStyle;" edge="1" parent="DfuE95c9C4esKyed2T_T-1" source="DfuE95c9C4esKyed2T_T-27" target="DfuE95c9C4esKyed2T_T-54">
          <mxGeometry x="0.5" y="41" relative="1" as="geometry">
            <mxPoint x="370" y="230" as="sourcePoint" />
            <mxPoint x="580" y="230" as="targetPoint" />
            <mxPoint x="-40" y="32" as="offset" />
            <Array as="points">
              <mxPoint x="500" y="830" />
              <mxPoint x="160" y="830" />
            </Array>
          </mxGeometry>
        </mxCell>
        <mxCell id="DfuE95c9C4esKyed2T_T-64" value="" style="resizable=0;align=left;verticalAlign=bottom;labelBackgroundColor=none;fontSize=12;" connectable="0" vertex="1" parent="DfuE95c9C4esKyed2T_T-63">
          <mxGeometry x="-1" relative="1" as="geometry">
            <mxPoint y="4" as="offset" />
          </mxGeometry>
        </mxCell>
        <mxCell id="DfuE95c9C4esKyed2T_T-65" value="" style="endArrow=none;html=1;rounded=0;edgeStyle=orthogonalEdgeStyle;" edge="1" parent="DfuE95c9C4esKyed2T_T-1" source="DfuE95c9C4esKyed2T_T-21" target="DfuE95c9C4esKyed2T_T-54">
          <mxGeometry x="0.5" y="41" relative="1" as="geometry">
            <mxPoint x="279.33000000000004" y="450" as="sourcePoint" />
            <mxPoint x="279.33000000000004" y="640" as="targetPoint" />
            <mxPoint x="-40" y="32" as="offset" />
          </mxGeometry>
        </mxCell>
        <mxCell id="DfuE95c9C4esKyed2T_T-66" value="0..n" style="resizable=0;align=left;verticalAlign=bottom;labelBackgroundColor=none;fontSize=12;" connectable="0" vertex="1" parent="DfuE95c9C4esKyed2T_T-65">
          <mxGeometry x="-1" relative="1" as="geometry">
            <mxPoint y="174" as="offset" />
          </mxGeometry>
        </mxCell>
        <mxCell id="DfuE95c9C4esKyed2T_T-67" value="1" style="resizable=0;align=right;verticalAlign=bottom;labelBackgroundColor=none;fontSize=12;" connectable="0" vertex="1" parent="DfuE95c9C4esKyed2T_T-65">
          <mxGeometry x="1" relative="1" as="geometry">
            <mxPoint x="254" y="-150" as="offset" />
          </mxGeometry>
        </mxCell>
        <mxCell id="DfuE95c9C4esKyed2T_T-68" value="herd &amp;gt;" style="edgeLabel;html=1;align=center;verticalAlign=middle;resizable=0;points=[];" connectable="0" vertex="1" parent="DfuE95c9C4esKyed2T_T-65">
          <mxGeometry x="0.0768" y="-1" relative="1" as="geometry">
            <mxPoint as="offset" />
          </mxGeometry>
        </mxCell>
        <mxCell id="DfuE95c9C4esKyed2T_T-69" value="1" style="resizable=0;align=left;verticalAlign=bottom;labelBackgroundColor=none;fontSize=12;direction=north;" connectable="0" vertex="1" parent="DfuE95c9C4esKyed2T_T-1">
          <mxGeometry x="170" y="740" as="geometry">
            <mxPoint x="-4" y="1" as="offset" />
          </mxGeometry>
        </mxCell>
        <mxCell id="DfuE95c9C4esKyed2T_T-70" value="1" style="resizable=0;align=right;verticalAlign=bottom;labelBackgroundColor=none;fontSize=12;" connectable="0" vertex="1" parent="DfuE95c9C4esKyed2T_T-1">
          <mxGeometry x="929.9961904761903" y="560.9961904761905" as="geometry">
            <mxPoint x="275" y="-118" as="offset" />
          </mxGeometry>
        </mxCell>
        <mxCell id="DfuE95c9C4esKyed2T_T-71" value="CaangolCell" style="swimlane;fontStyle=0;align=center;verticalAlign=top;childLayout=stackLayout;horizontal=1;startSize=26;horizontalStack=0;resizeParent=1;resizeLast=0;collapsible=1;marginBottom=0;rounded=0;shadow=0;strokeWidth=1;" vertex="1" parent="DfuE95c9C4esKyed2T_T-1">
          <mxGeometry x="930" y="624" width="170" height="280" as="geometry">
            <mxRectangle x="340" y="380" width="170" height="26" as="alternateBounds" />
          </mxGeometry>
        </mxCell>
        <mxCell id="DfuE95c9C4esKyed2T_T-72" value="maxAmountOfLeaves" style="text;html=1;align=center;verticalAlign=middle;resizable=0;points=[];autosize=1;strokeColor=none;fillColor=none;" vertex="1" parent="DfuE95c9C4esKyed2T_T-71">
          <mxGeometry y="26" width="170" height="30" as="geometry" />
        </mxCell>
        <mxCell id="DfuE95c9C4esKyed2T_T-73" value="maxAmountOfFruits" style="text;html=1;align=center;verticalAlign=middle;resizable=0;points=[];autosize=1;strokeColor=none;fillColor=none;" vertex="1" parent="DfuE95c9C4esKyed2T_T-71">
          <mxGeometry y="56" width="170" height="30" as="geometry" />
        </mxCell>
        <mxCell id="DfuE95c9C4esKyed2T_T-74" value="maxAmountOfGrass" style="text;html=1;align=center;verticalAlign=middle;resizable=0;points=[];autosize=1;strokeColor=none;fillColor=none;" vertex="1" parent="DfuE95c9C4esKyed2T_T-71">
          <mxGeometry y="86" width="170" height="30" as="geometry" />
        </mxCell>
        <mxCell id="DfuE95c9C4esKyed2T_T-75" value="maxAmountOfWood" style="text;html=1;align=center;verticalAlign=middle;resizable=0;points=[];autosize=1;strokeColor=none;fillColor=none;" vertex="1" parent="DfuE95c9C4esKyed2T_T-71">
          <mxGeometry y="116" width="170" height="30" as="geometry" />
        </mxCell>
        <mxCell id="DfuE95c9C4esKyed2T_T-76" value="leaveGrowthCoef" style="text;html=1;align=center;verticalAlign=middle;resizable=0;points=[];autosize=1;strokeColor=none;fillColor=none;" vertex="1" parent="DfuE95c9C4esKyed2T_T-71">
          <mxGeometry y="146" width="170" height="30" as="geometry" />
        </mxCell>
        <mxCell id="DfuE95c9C4esKyed2T_T-77" value="fruitGrowthCoef" style="text;html=1;align=center;verticalAlign=middle;resizable=0;points=[];autosize=1;strokeColor=none;fillColor=none;" vertex="1" parent="DfuE95c9C4esKyed2T_T-71">
          <mxGeometry y="176" width="170" height="30" as="geometry" />
        </mxCell>
        <mxCell id="DfuE95c9C4esKyed2T_T-78" value="grassGrowthCoef" style="text;html=1;align=center;verticalAlign=middle;resizable=0;points=[];autosize=1;strokeColor=none;fillColor=none;" vertex="1" parent="DfuE95c9C4esKyed2T_T-71">
          <mxGeometry y="206" width="170" height="30" as="geometry" />
        </mxCell>
        <mxCell id="DfuE95c9C4esKyed2T_T-79" value="woodGrowthCoef" style="text;html=1;align=center;verticalAlign=middle;resizable=0;points=[];autosize=1;strokeColor=none;fillColor=none;" vertex="1" parent="DfuE95c9C4esKyed2T_T-71">
          <mxGeometry y="236" width="170" height="30" as="geometry" />
        </mxCell>
        <mxCell id="DfuE95c9C4esKyed2T_T-80" value="" style="line;html=1;strokeWidth=1;align=left;verticalAlign=middle;spacingTop=-1;spacingLeft=3;spacingRight=3;rotatable=0;labelPosition=right;points=[];portConstraint=eastwest;" vertex="1" parent="DfuE95c9C4esKyed2T_T-71">
          <mxGeometry y="266" width="170" height="8" as="geometry" />
        </mxCell>
        <mxCell id="DfuE95c9C4esKyed2T_T-81" value="SangreCell" style="swimlane;fontStyle=0;align=center;verticalAlign=top;childLayout=stackLayout;horizontal=1;startSize=26;horizontalStack=0;resizeParent=1;resizeLast=0;collapsible=1;marginBottom=0;rounded=0;shadow=0;strokeWidth=1;" vertex="1" parent="DfuE95c9C4esKyed2T_T-1">
          <mxGeometry x="1110" y="624" width="170" height="274" as="geometry">
            <mxRectangle x="340" y="380" width="170" height="26" as="alternateBounds" />
          </mxGeometry>
        </mxCell>
        <mxCell id="DfuE95c9C4esKyed2T_T-82" value="maxAmountOfLeaves" style="text;html=1;align=center;verticalAlign=middle;resizable=0;points=[];autosize=1;strokeColor=none;fillColor=none;" vertex="1" parent="DfuE95c9C4esKyed2T_T-81">
          <mxGeometry y="26" width="170" height="30" as="geometry" />
        </mxCell>
        <mxCell id="DfuE95c9C4esKyed2T_T-83" value="maxAmountOfFruits" style="text;html=1;align=center;verticalAlign=middle;resizable=0;points=[];autosize=1;strokeColor=none;fillColor=none;" vertex="1" parent="DfuE95c9C4esKyed2T_T-81">
          <mxGeometry y="56" width="170" height="30" as="geometry" />
        </mxCell>
        <mxCell id="DfuE95c9C4esKyed2T_T-84" value="maxAmountOfGrass" style="text;html=1;align=center;verticalAlign=middle;resizable=0;points=[];autosize=1;strokeColor=none;fillColor=none;" vertex="1" parent="DfuE95c9C4esKyed2T_T-81">
          <mxGeometry y="86" width="170" height="30" as="geometry" />
        </mxCell>
        <mxCell id="DfuE95c9C4esKyed2T_T-85" value="maxAmountOfWood" style="text;html=1;align=center;verticalAlign=middle;resizable=0;points=[];autosize=1;strokeColor=none;fillColor=none;" vertex="1" parent="DfuE95c9C4esKyed2T_T-81">
          <mxGeometry y="116" width="170" height="30" as="geometry" />
        </mxCell>
        <mxCell id="DfuE95c9C4esKyed2T_T-86" value="leaveGrowthCoef" style="text;html=1;align=center;verticalAlign=middle;resizable=0;points=[];autosize=1;strokeColor=none;fillColor=none;" vertex="1" parent="DfuE95c9C4esKyed2T_T-81">
          <mxGeometry y="146" width="170" height="30" as="geometry" />
        </mxCell>
        <mxCell id="DfuE95c9C4esKyed2T_T-87" value="fruitGrowthCoef" style="text;html=1;align=center;verticalAlign=middle;resizable=0;points=[];autosize=1;strokeColor=none;fillColor=none;" vertex="1" parent="DfuE95c9C4esKyed2T_T-81">
          <mxGeometry y="176" width="170" height="30" as="geometry" />
        </mxCell>
        <mxCell id="DfuE95c9C4esKyed2T_T-88" value="grassGrowthCoef" style="text;html=1;align=center;verticalAlign=middle;resizable=0;points=[];autosize=1;strokeColor=none;fillColor=none;" vertex="1" parent="DfuE95c9C4esKyed2T_T-81">
          <mxGeometry y="206" width="170" height="30" as="geometry" />
        </mxCell>
        <mxCell id="DfuE95c9C4esKyed2T_T-89" value="woodGrowthCoef" style="text;html=1;align=center;verticalAlign=middle;resizable=0;points=[];autosize=1;strokeColor=none;fillColor=none;" vertex="1" parent="DfuE95c9C4esKyed2T_T-81">
          <mxGeometry y="236" width="170" height="30" as="geometry" />
        </mxCell>
        <mxCell id="DfuE95c9C4esKyed2T_T-90" value="" style="line;html=1;strokeWidth=1;align=left;verticalAlign=middle;spacingTop=-1;spacingLeft=3;spacingRight=3;rotatable=0;labelPosition=right;points=[];portConstraint=eastwest;" vertex="1" parent="DfuE95c9C4esKyed2T_T-81">
          <mxGeometry y="266" width="170" height="8" as="geometry" />
        </mxCell>
        <mxCell id="DfuE95c9C4esKyed2T_T-91" value="BaldiolCell" style="swimlane;fontStyle=0;align=center;verticalAlign=top;childLayout=stackLayout;horizontal=1;startSize=26;horizontalStack=0;resizeParent=1;resizeLast=0;collapsible=1;marginBottom=0;rounded=0;shadow=0;strokeWidth=1;" vertex="1" parent="DfuE95c9C4esKyed2T_T-1">
          <mxGeometry x="1470" y="624" width="170" height="274" as="geometry">
            <mxRectangle x="340" y="380" width="170" height="26" as="alternateBounds" />
          </mxGeometry>
        </mxCell>
        <mxCell id="DfuE95c9C4esKyed2T_T-92" value="maxAmountOfLeaves" style="text;html=1;align=center;verticalAlign=middle;resizable=0;points=[];autosize=1;strokeColor=none;fillColor=none;" vertex="1" parent="DfuE95c9C4esKyed2T_T-91">
          <mxGeometry y="26" width="170" height="30" as="geometry" />
        </mxCell>
        <mxCell id="DfuE95c9C4esKyed2T_T-93" value="maxAmountOfFruits" style="text;html=1;align=center;verticalAlign=middle;resizable=0;points=[];autosize=1;strokeColor=none;fillColor=none;" vertex="1" parent="DfuE95c9C4esKyed2T_T-91">
          <mxGeometry y="56" width="170" height="30" as="geometry" />
        </mxCell>
        <mxCell id="DfuE95c9C4esKyed2T_T-94" value="maxAmountOfGrass" style="text;html=1;align=center;verticalAlign=middle;resizable=0;points=[];autosize=1;strokeColor=none;fillColor=none;" vertex="1" parent="DfuE95c9C4esKyed2T_T-91">
          <mxGeometry y="86" width="170" height="30" as="geometry" />
        </mxCell>
        <mxCell id="DfuE95c9C4esKyed2T_T-95" value="maxAmountOfWood" style="text;html=1;align=center;verticalAlign=middle;resizable=0;points=[];autosize=1;strokeColor=none;fillColor=none;" vertex="1" parent="DfuE95c9C4esKyed2T_T-91">
          <mxGeometry y="116" width="170" height="30" as="geometry" />
        </mxCell>
        <mxCell id="DfuE95c9C4esKyed2T_T-96" value="leaveGrowthCoef" style="text;html=1;align=center;verticalAlign=middle;resizable=0;points=[];autosize=1;strokeColor=none;fillColor=none;" vertex="1" parent="DfuE95c9C4esKyed2T_T-91">
          <mxGeometry y="146" width="170" height="30" as="geometry" />
        </mxCell>
        <mxCell id="DfuE95c9C4esKyed2T_T-97" value="fruitGrowthCoef" style="text;html=1;align=center;verticalAlign=middle;resizable=0;points=[];autosize=1;strokeColor=none;fillColor=none;" vertex="1" parent="DfuE95c9C4esKyed2T_T-91">
          <mxGeometry y="176" width="170" height="30" as="geometry" />
        </mxCell>
        <mxCell id="DfuE95c9C4esKyed2T_T-98" value="grassGrowthCoef" style="text;html=1;align=center;verticalAlign=middle;resizable=0;points=[];autosize=1;strokeColor=none;fillColor=none;" vertex="1" parent="DfuE95c9C4esKyed2T_T-91">
          <mxGeometry y="206" width="170" height="30" as="geometry" />
        </mxCell>
        <mxCell id="DfuE95c9C4esKyed2T_T-99" value="woodGrowthCoef" style="text;html=1;align=center;verticalAlign=middle;resizable=0;points=[];autosize=1;strokeColor=none;fillColor=none;" vertex="1" parent="DfuE95c9C4esKyed2T_T-91">
          <mxGeometry y="236" width="170" height="30" as="geometry" />
        </mxCell>
        <mxCell id="DfuE95c9C4esKyed2T_T-100" value="" style="line;html=1;strokeWidth=1;align=left;verticalAlign=middle;spacingTop=-1;spacingLeft=3;spacingRight=3;rotatable=0;labelPosition=right;points=[];portConstraint=eastwest;" vertex="1" parent="DfuE95c9C4esKyed2T_T-91">
          <mxGeometry y="266" width="170" height="8" as="geometry" />
        </mxCell>
        <mxCell id="DfuE95c9C4esKyed2T_T-101" value="SeenoCell" style="swimlane;fontStyle=0;align=center;verticalAlign=top;childLayout=stackLayout;horizontal=1;startSize=26;horizontalStack=0;resizeParent=1;resizeLast=0;collapsible=1;marginBottom=0;rounded=0;shadow=0;strokeWidth=1;" vertex="1" parent="DfuE95c9C4esKyed2T_T-1">
          <mxGeometry x="1290" y="624" width="170" height="274" as="geometry">
            <mxRectangle x="340" y="380" width="170" height="26" as="alternateBounds" />
          </mxGeometry>
        </mxCell>
        <mxCell id="DfuE95c9C4esKyed2T_T-102" value="maxAmountOfLeaves" style="text;html=1;align=center;verticalAlign=middle;resizable=0;points=[];autosize=1;strokeColor=none;fillColor=none;" vertex="1" parent="DfuE95c9C4esKyed2T_T-101">
          <mxGeometry y="26" width="170" height="30" as="geometry" />
        </mxCell>
        <mxCell id="DfuE95c9C4esKyed2T_T-103" value="maxAmountOfFruits" style="text;html=1;align=center;verticalAlign=middle;resizable=0;points=[];autosize=1;strokeColor=none;fillColor=none;" vertex="1" parent="DfuE95c9C4esKyed2T_T-101">
          <mxGeometry y="56" width="170" height="30" as="geometry" />
        </mxCell>
        <mxCell id="DfuE95c9C4esKyed2T_T-104" value="maxAmountOfGrass" style="text;html=1;align=center;verticalAlign=middle;resizable=0;points=[];autosize=1;strokeColor=none;fillColor=none;" vertex="1" parent="DfuE95c9C4esKyed2T_T-101">
          <mxGeometry y="86" width="170" height="30" as="geometry" />
        </mxCell>
        <mxCell id="DfuE95c9C4esKyed2T_T-105" value="maxAmountOfWood" style="text;html=1;align=center;verticalAlign=middle;resizable=0;points=[];autosize=1;strokeColor=none;fillColor=none;" vertex="1" parent="DfuE95c9C4esKyed2T_T-101">
          <mxGeometry y="116" width="170" height="30" as="geometry" />
        </mxCell>
        <mxCell id="DfuE95c9C4esKyed2T_T-106" value="leaveGrowthCoef" style="text;html=1;align=center;verticalAlign=middle;resizable=0;points=[];autosize=1;strokeColor=none;fillColor=none;" vertex="1" parent="DfuE95c9C4esKyed2T_T-101">
          <mxGeometry y="146" width="170" height="30" as="geometry" />
        </mxCell>
        <mxCell id="DfuE95c9C4esKyed2T_T-107" value="fruitGrowthCoef" style="text;html=1;align=center;verticalAlign=middle;resizable=0;points=[];autosize=1;strokeColor=none;fillColor=none;" vertex="1" parent="DfuE95c9C4esKyed2T_T-101">
          <mxGeometry y="176" width="170" height="30" as="geometry" />
        </mxCell>
        <mxCell id="DfuE95c9C4esKyed2T_T-108" value="grassGrowthCoef" style="text;html=1;align=center;verticalAlign=middle;resizable=0;points=[];autosize=1;strokeColor=none;fillColor=none;" vertex="1" parent="DfuE95c9C4esKyed2T_T-101">
          <mxGeometry y="206" width="170" height="30" as="geometry" />
        </mxCell>
        <mxCell id="DfuE95c9C4esKyed2T_T-109" value="woodGrowthCoef" style="text;html=1;align=center;verticalAlign=middle;resizable=0;points=[];autosize=1;strokeColor=none;fillColor=none;" vertex="1" parent="DfuE95c9C4esKyed2T_T-101">
          <mxGeometry y="236" width="170" height="30" as="geometry" />
        </mxCell>
        <mxCell id="DfuE95c9C4esKyed2T_T-110" value="" style="line;html=1;strokeWidth=1;align=left;verticalAlign=middle;spacingTop=-1;spacingLeft=3;spacingRight=3;rotatable=0;labelPosition=right;points=[];portConstraint=eastwest;" vertex="1" parent="DfuE95c9C4esKyed2T_T-101">
          <mxGeometry y="266" width="170" height="8" as="geometry" />
        </mxCell>
        <mxCell id="DfuE95c9C4esKyed2T_T-111" value="" style="endArrow=block;endSize=10;endFill=0;shadow=0;strokeWidth=1;rounded=0;edgeStyle=elbowEdgeStyle;elbow=vertical;" edge="1" parent="DfuE95c9C4esKyed2T_T-1" source="DfuE95c9C4esKyed2T_T-91" target="DfuE95c9C4esKyed2T_T-43">
          <mxGeometry width="160" relative="1" as="geometry">
            <mxPoint x="1570" y="839" as="sourcePoint" />
            <mxPoint x="1360" y="793" as="targetPoint" />
          </mxGeometry>
        </mxCell>
        <mxCell id="DfuE95c9C4esKyed2T_T-112" value="" style="endArrow=block;endSize=10;endFill=0;shadow=0;strokeWidth=1;rounded=0;edgeStyle=elbowEdgeStyle;elbow=vertical;" edge="1" parent="DfuE95c9C4esKyed2T_T-1" source="DfuE95c9C4esKyed2T_T-101" target="DfuE95c9C4esKyed2T_T-43">
          <mxGeometry width="160" relative="1" as="geometry">
            <mxPoint x="1580" y="849" as="sourcePoint" />
            <mxPoint x="1300" y="604" as="targetPoint" />
          </mxGeometry>
        </mxCell>
        <mxCell id="DfuE95c9C4esKyed2T_T-113" value="" style="endArrow=block;endSize=10;endFill=0;shadow=0;strokeWidth=1;rounded=0;edgeStyle=elbowEdgeStyle;elbow=vertical;" edge="1" parent="DfuE95c9C4esKyed2T_T-1" source="DfuE95c9C4esKyed2T_T-81" target="DfuE95c9C4esKyed2T_T-43">
          <mxGeometry width="160" relative="1" as="geometry">
            <mxPoint x="1590" y="859" as="sourcePoint" />
            <mxPoint x="1190" y="644" as="targetPoint" />
          </mxGeometry>
        </mxCell>
        <mxCell id="DfuE95c9C4esKyed2T_T-114" value="" style="endArrow=block;endSize=10;endFill=0;shadow=0;strokeWidth=1;rounded=0;edgeStyle=elbowEdgeStyle;elbow=vertical;" edge="1" parent="DfuE95c9C4esKyed2T_T-1" source="DfuE95c9C4esKyed2T_T-71" target="DfuE95c9C4esKyed2T_T-43">
          <mxGeometry width="160" relative="1" as="geometry">
            <mxPoint x="1600" y="869" as="sourcePoint" />
            <mxPoint x="1320" y="624" as="targetPoint" />
          </mxGeometry>
        </mxCell>
        <mxCell id="DfuE95c9C4esKyed2T_T-115" style="endArrow=none;html=1;rounded=0;edgeStyle=orthogonalEdgeStyle;" edge="1" parent="DfuE95c9C4esKyed2T_T-1" source="DfuE95c9C4esKyed2T_T-2" target="DfuE95c9C4esKyed2T_T-43">
          <mxGeometry relative="1" as="geometry">
            <mxPoint x="740" y="209.04761904761904" as="sourcePoint" />
            <mxPoint x="1210" y="203" as="targetPoint" />
            <Array as="points">
              <mxPoint x="990" y="120" />
              <mxPoint x="990" y="120" />
            </Array>
          </mxGeometry>
        </mxCell>
        <mxCell id="DfuE95c9C4esKyed2T_T-116" value="is located &amp;gt;" style="edgeLabel;html=1;align=center;verticalAlign=middle;resizable=0;points=[];" connectable="0" vertex="1" parent="DfuE95c9C4esKyed2T_T-115">
          <mxGeometry x="0.0143" y="3" relative="1" as="geometry">
            <mxPoint as="offset" />
          </mxGeometry>
        </mxCell>
        <mxCell id="DfuE95c9C4esKyed2T_T-117" value="Transhumant" style="swimlane;fontStyle=0;align=center;verticalAlign=top;childLayout=stackLayout;horizontal=1;startSize=26;horizontalStack=0;resizeParent=1;resizeLast=0;collapsible=1;marginBottom=0;rounded=0;shadow=0;strokeWidth=1;" vertex="1" parent="DfuE95c9C4esKyed2T_T-1">
          <mxGeometry x="605" y="920" width="160" height="50" as="geometry">
            <mxRectangle x="340" y="380" width="170" height="26" as="alternateBounds" />
          </mxGeometry>
        </mxCell>
        <mxCell id="DfuE95c9C4esKyed2T_T-118" value="" style="line;html=1;strokeWidth=1;align=left;verticalAlign=middle;spacingTop=-1;spacingLeft=3;spacingRight=3;rotatable=0;labelPosition=right;points=[];portConstraint=eastwest;" vertex="1" parent="DfuE95c9C4esKyed2T_T-117">
          <mxGeometry y="26" width="160" height="8" as="geometry" />
        </mxCell>
        <mxCell id="DfuE95c9C4esKyed2T_T-119" value="Settled" style="swimlane;fontStyle=0;align=center;verticalAlign=top;childLayout=stackLayout;horizontal=1;startSize=26;horizontalStack=0;resizeParent=1;resizeLast=0;collapsible=1;marginBottom=0;rounded=0;shadow=0;strokeWidth=1;" vertex="1" parent="DfuE95c9C4esKyed2T_T-1">
          <mxGeometry x="795" y="920" width="160" height="50" as="geometry">
            <mxRectangle x="340" y="380" width="170" height="26" as="alternateBounds" />
          </mxGeometry>
        </mxCell>
        <mxCell id="DfuE95c9C4esKyed2T_T-120" value="" style="line;html=1;strokeWidth=1;align=left;verticalAlign=middle;spacingTop=-1;spacingLeft=3;spacingRight=3;rotatable=0;labelPosition=right;points=[];portConstraint=eastwest;" vertex="1" parent="DfuE95c9C4esKyed2T_T-119">
          <mxGeometry y="26" width="160" height="8" as="geometry" />
        </mxCell>
        <mxCell id="DfuE95c9C4esKyed2T_T-121" value="" style="endArrow=block;endSize=10;endFill=0;shadow=0;strokeWidth=1;rounded=0;edgeStyle=elbowEdgeStyle;elbow=vertical;" edge="1" parent="DfuE95c9C4esKyed2T_T-1" source="DfuE95c9C4esKyed2T_T-117" target="DfuE95c9C4esKyed2T_T-41">
          <mxGeometry width="160" relative="1" as="geometry">
            <mxPoint x="1015" y="595" as="sourcePoint" />
            <mxPoint x="1290" y="350" as="targetPoint" />
          </mxGeometry>
        </mxCell>
        <mxCell id="DfuE95c9C4esKyed2T_T-122" value="" style="endArrow=block;endSize=10;endFill=0;shadow=0;strokeWidth=1;rounded=0;edgeStyle=elbowEdgeStyle;elbow=vertical;" edge="1" parent="DfuE95c9C4esKyed2T_T-1" source="DfuE95c9C4esKyed2T_T-119" target="DfuE95c9C4esKyed2T_T-41">
          <mxGeometry width="160" relative="1" as="geometry">
            <mxPoint x="695" y="930" as="sourcePoint" />
            <mxPoint x="790" y="875" as="targetPoint" />
          </mxGeometry>
        </mxCell>
        <mxCell id="DfuE95c9C4esKyed2T_T-123" value="1" style="resizable=0;align=right;verticalAlign=bottom;labelBackgroundColor=none;fontSize=12;" connectable="0" vertex="1" parent="DfuE95c9C4esKyed2T_T-1">
          <mxGeometry x="390.0000000000001" y="119.99999999999994" as="geometry" />
        </mxCell>
        <mxCell id="DfuE95c9C4esKyed2T_T-124" value="1" style="resizable=0;align=right;verticalAlign=bottom;labelBackgroundColor=none;fontSize=12;" connectable="0" vertex="1" parent="DfuE95c9C4esKyed2T_T-1">
          <mxGeometry x="1200" y="373.99999999999994" as="geometry" />
        </mxCell>
        <mxCell id="DfuE95c9C4esKyed2T_T-125" value="" style="endArrow=none;html=1;rounded=0;edgeStyle=orthogonalEdgeStyle;" edge="1" parent="DfuE95c9C4esKyed2T_T-1">
          <mxGeometry x="0.5" y="41" relative="1" as="geometry">
            <mxPoint x="880" y="980" as="sourcePoint" />
            <mxPoint x="540" y="1106" as="targetPoint" />
            <mxPoint x="-40" y="32" as="offset" />
            <Array as="points">
              <mxPoint x="880" y="1026" />
              <mxPoint x="540" y="1026" />
            </Array>
          </mxGeometry>
        </mxCell>
        <mxCell id="DfuE95c9C4esKyed2T_T-126" value="" style="resizable=0;align=left;verticalAlign=bottom;labelBackgroundColor=none;fontSize=12;" connectable="0" vertex="1" parent="DfuE95c9C4esKyed2T_T-125">
          <mxGeometry x="-1" relative="1" as="geometry">
            <mxPoint y="4" as="offset" />
          </mxGeometry>
        </mxCell>
      </root>
    </mxGraphModel>
  </diagram>
  <diagram id="t8aIbzR3NN1FRr3DA47K" name="Page-2">
    <mxGraphModel dx="351" dy="567" grid="1" gridSize="10" guides="1" tooltips="1" connect="0" arrows="1" fold="1" page="1" pageScale="1" pageWidth="827" pageHeight="1169" math="0" shadow="0">
      <root>
        <mxCell id="0" />
        <mxCell id="1" parent="0" />
        <mxCell id="dokCw9jBq2JZzCb2nxM8-32" style="edgeStyle=orthogonalEdgeStyle;rounded=0;orthogonalLoop=1;jettySize=auto;html=1;" edge="1" parent="1" source="dokCw9jBq2JZzCb2nxM8-1" target="dokCw9jBq2JZzCb2nxM8-10">
          <mxGeometry relative="1" as="geometry" />
        </mxCell>
        <mxCell id="dokCw9jBq2JZzCb2nxM8-33" value="management methods" style="edgeLabel;html=1;align=center;verticalAlign=middle;resizable=0;points=[];" vertex="1" connectable="0" parent="dokCw9jBq2JZzCb2nxM8-32">
          <mxGeometry x="-0.2508" y="-1" relative="1" as="geometry">
            <mxPoint x="-8" y="1" as="offset" />
          </mxGeometry>
        </mxCell>
        <mxCell id="dokCw9jBq2JZzCb2nxM8-34" style="edgeStyle=orthogonalEdgeStyle;rounded=0;orthogonalLoop=1;jettySize=auto;html=1;" edge="1" parent="1" source="dokCw9jBq2JZzCb2nxM8-1" target="dokCw9jBq2JZzCb2nxM8-7">
          <mxGeometry relative="1" as="geometry">
            <Array as="points">
              <mxPoint x="590" y="440" />
            </Array>
          </mxGeometry>
        </mxCell>
        <mxCell id="dokCw9jBq2JZzCb2nxM8-35" value="Impacts" style="edgeLabel;html=1;align=center;verticalAlign=middle;resizable=0;points=[];" vertex="1" connectable="0" parent="dokCw9jBq2JZzCb2nxM8-34">
          <mxGeometry x="-0.8283" y="-2" relative="1" as="geometry">
            <mxPoint y="-1" as="offset" />
          </mxGeometry>
        </mxCell>
        <mxCell id="dokCw9jBq2JZzCb2nxM8-64" style="edgeStyle=orthogonalEdgeStyle;rounded=0;orthogonalLoop=1;jettySize=auto;html=1;" edge="1" parent="1" source="dokCw9jBq2JZzCb2nxM8-1" target="dokCw9jBq2JZzCb2nxM8-3">
          <mxGeometry relative="1" as="geometry">
            <Array as="points">
              <mxPoint x="520" y="220" />
              <mxPoint x="464" y="220" />
            </Array>
          </mxGeometry>
        </mxCell>
        <mxCell id="dokCw9jBq2JZzCb2nxM8-65" value="exogene factors" style="edgeLabel;html=1;align=center;verticalAlign=middle;resizable=0;points=[];" vertex="1" connectable="0" parent="dokCw9jBq2JZzCb2nxM8-64">
          <mxGeometry x="0.1112" y="-3" relative="1" as="geometry">
            <mxPoint as="offset" />
          </mxGeometry>
        </mxCell>
        <mxCell id="dokCw9jBq2JZzCb2nxM8-1" value="Management methods X Factors" style="ellipse;whiteSpace=wrap;html=1;" vertex="1" parent="1">
          <mxGeometry x="492" y="120" width="120" height="80" as="geometry" />
        </mxCell>
        <mxCell id="dokCw9jBq2JZzCb2nxM8-2" value="&lt;font style=&quot;font-size: 15px;&quot;&gt;&lt;u&gt;Research Question&lt;/u&gt; &lt;/font&gt;: How do &lt;b&gt;management methods (individual and collective)&lt;/b&gt; &lt;font color=&quot;#ffff66&quot;&gt;&lt;b&gt;&lt;u&gt;&lt;span style=&quot;background-color: rgb(26, 26, 26);&quot;&gt;X1&lt;/span&gt;&lt;/u&gt;&lt;/b&gt;&lt;/font&gt; and &lt;b&gt;exogenous factors&lt;/b&gt; &lt;font color=&quot;#ffff66&quot;&gt;&lt;u&gt;&lt;b&gt;&lt;span style=&quot;background-color: rgb(26, 26, 26);&quot;&gt;X2&lt;/span&gt;&lt;/b&gt;&lt;/u&gt;&lt;/font&gt; impact on the &lt;b&gt;sustainability of forest resources&lt;/b&gt; &lt;span style=&quot;background-color: rgb(26, 26, 26);&quot;&gt;&lt;font color=&quot;#ffff66&quot;&gt;&lt;b&gt;&lt;u&gt;Y&lt;/u&gt;&lt;/b&gt;&lt;/font&gt;&lt;/span&gt; in the &lt;b&gt;&lt;i&gt;context of degraded land restoration&lt;/i&gt;&lt;/b&gt; &lt;b&gt;&lt;u&gt;&lt;font style=&quot;background-color: rgb(0, 0, 0);&quot; color=&quot;#ffff66&quot;&gt;Z&lt;/font&gt;&lt;/u&gt;&lt;/b&gt;?" style="text;html=1;strokeColor=none;fillColor=none;align=center;verticalAlign=middle;whiteSpace=wrap;rounded=0;" vertex="1" parent="1">
          <mxGeometry x="20" width="790" height="50" as="geometry" />
        </mxCell>
        <mxCell id="dokCw9jBq2JZzCb2nxM8-3" value="Factors" style="ellipse;whiteSpace=wrap;html=1;" vertex="1" parent="1">
          <mxGeometry x="416.5" y="240" width="95" height="50" as="geometry" />
        </mxCell>
        <mxCell id="dokCw9jBq2JZzCb2nxM8-4" value="&lt;div&gt;Factor&lt;/div&gt;" style="ellipse;whiteSpace=wrap;html=1;" vertex="1" parent="1">
          <mxGeometry x="416" y="330" width="96" height="50" as="geometry" />
        </mxCell>
        <mxCell id="dokCw9jBq2JZzCb2nxM8-36" style="edgeStyle=orthogonalEdgeStyle;rounded=0;orthogonalLoop=1;jettySize=auto;html=1;" edge="1" parent="1" source="dokCw9jBq2JZzCb2nxM8-5" target="dokCw9jBq2JZzCb2nxM8-7">
          <mxGeometry relative="1" as="geometry" />
        </mxCell>
        <mxCell id="dokCw9jBq2JZzCb2nxM8-37" value="Resources" style="edgeLabel;html=1;align=center;verticalAlign=middle;resizable=0;points=[];" vertex="1" connectable="0" parent="dokCw9jBq2JZzCb2nxM8-36">
          <mxGeometry x="0.1444" relative="1" as="geometry">
            <mxPoint y="-1" as="offset" />
          </mxGeometry>
        </mxCell>
        <mxCell id="dokCw9jBq2JZzCb2nxM8-5" value="Indicator" style="ellipse;whiteSpace=wrap;html=1;" vertex="1" parent="1">
          <mxGeometry x="612" y="330" width="95" height="50" as="geometry" />
        </mxCell>
        <mxCell id="dokCw9jBq2JZzCb2nxM8-6" value="Indicators" style="ellipse;whiteSpace=wrap;html=1;" vertex="1" parent="1">
          <mxGeometry x="612" y="230" width="95" height="50" as="geometry" />
        </mxCell>
        <mxCell id="dokCw9jBq2JZzCb2nxM8-38" style="edgeStyle=orthogonalEdgeStyle;rounded=0;orthogonalLoop=1;jettySize=auto;html=1;" edge="1" parent="1" source="dokCw9jBq2JZzCb2nxM8-7" target="dokCw9jBq2JZzCb2nxM8-8">
          <mxGeometry relative="1" as="geometry" />
        </mxCell>
        <mxCell id="dokCw9jBq2JZzCb2nxM8-39" value="Amount" style="edgeLabel;html=1;align=center;verticalAlign=middle;resizable=0;points=[];" vertex="1" connectable="0" parent="dokCw9jBq2JZzCb2nxM8-38">
          <mxGeometry x="-0.4167" y="2" relative="1" as="geometry">
            <mxPoint as="offset" />
          </mxGeometry>
        </mxCell>
        <mxCell id="dokCw9jBq2JZzCb2nxM8-7" value="Stocks" style="ellipse;whiteSpace=wrap;html=1;" vertex="1" parent="1">
          <mxGeometry x="612" y="415" width="95" height="50" as="geometry" />
        </mxCell>
        <mxCell id="dokCw9jBq2JZzCb2nxM8-8" value="Real" style="ellipse;whiteSpace=wrap;html=1;" vertex="1" parent="1">
          <mxGeometry x="732" y="360" width="95" height="50" as="geometry" />
        </mxCell>
        <mxCell id="dokCw9jBq2JZzCb2nxM8-9" value="Stock" style="ellipse;whiteSpace=wrap;html=1;" vertex="1" parent="1">
          <mxGeometry x="715" y="500" width="95" height="50" as="geometry" />
        </mxCell>
        <mxCell id="dokCw9jBq2JZzCb2nxM8-10" value="Management methods" style="ellipse;whiteSpace=wrap;html=1;" vertex="1" parent="1">
          <mxGeometry x="250" y="150" width="120" height="60" as="geometry" />
        </mxCell>
        <mxCell id="dokCw9jBq2JZzCb2nxM8-52" style="rounded=0;orthogonalLoop=1;jettySize=auto;html=1;strokeColor=default;strokeWidth=1;edgeStyle=orthogonalEdgeStyle;jumpStyle=none;endArrow=open;endFill=0;" edge="1" parent="1" source="dokCw9jBq2JZzCb2nxM8-11" target="dokCw9jBq2JZzCb2nxM8-17">
          <mxGeometry relative="1" as="geometry" />
        </mxCell>
        <mxCell id="dokCw9jBq2JZzCb2nxM8-53" value="subject" style="edgeLabel;html=1;align=center;verticalAlign=middle;resizable=0;points=[];" vertex="1" connectable="0" parent="dokCw9jBq2JZzCb2nxM8-52">
          <mxGeometry x="-0.3692" y="3" relative="1" as="geometry">
            <mxPoint x="-1" as="offset" />
          </mxGeometry>
        </mxCell>
        <mxCell id="dokCw9jBq2JZzCb2nxM8-11" value="Management method" style="ellipse;whiteSpace=wrap;html=1;" vertex="1" parent="1">
          <mxGeometry x="255" y="310" width="110" height="60" as="geometry" />
        </mxCell>
        <mxCell id="dokCw9jBq2JZzCb2nxM8-44" style="edgeStyle=orthogonalEdgeStyle;rounded=0;orthogonalLoop=1;jettySize=auto;html=1;" edge="1" parent="1" source="dokCw9jBq2JZzCb2nxM8-12" target="dokCw9jBq2JZzCb2nxM8-13">
          <mxGeometry relative="1" as="geometry" />
        </mxCell>
        <mxCell id="dokCw9jBq2JZzCb2nxM8-45" value="Operates" style="edgeLabel;html=1;align=center;verticalAlign=middle;resizable=0;points=[];" vertex="1" connectable="0" parent="dokCw9jBq2JZzCb2nxM8-44">
          <mxGeometry x="0.1333" y="-4" relative="1" as="geometry">
            <mxPoint as="offset" />
          </mxGeometry>
        </mxCell>
        <mxCell id="dokCw9jBq2JZzCb2nxM8-12" value="Resource holder" style="ellipse;whiteSpace=wrap;html=1;" vertex="1" parent="1">
          <mxGeometry x="460" y="410" width="110" height="60" as="geometry" />
        </mxCell>
        <mxCell id="dokCw9jBq2JZzCb2nxM8-40" style="edgeStyle=orthogonalEdgeStyle;rounded=0;orthogonalLoop=1;jettySize=auto;html=1;" edge="1" parent="1" source="dokCw9jBq2JZzCb2nxM8-13" target="dokCw9jBq2JZzCb2nxM8-7">
          <mxGeometry relative="1" as="geometry">
            <Array as="points">
              <mxPoint x="505" y="570" />
              <mxPoint x="660" y="570" />
            </Array>
          </mxGeometry>
        </mxCell>
        <mxCell id="dokCw9jBq2JZzCb2nxM8-42" value="Resources" style="edgeLabel;html=1;align=center;verticalAlign=middle;resizable=0;points=[];" vertex="1" connectable="0" parent="dokCw9jBq2JZzCb2nxM8-40">
          <mxGeometry x="0.3715" y="-5" relative="1" as="geometry">
            <mxPoint as="offset" />
          </mxGeometry>
        </mxCell>
        <mxCell id="dokCw9jBq2JZzCb2nxM8-41" style="edgeStyle=orthogonalEdgeStyle;rounded=0;orthogonalLoop=1;jettySize=auto;html=1;entryX=0.5;entryY=1;entryDx=0;entryDy=0;" edge="1" parent="1" source="dokCw9jBq2JZzCb2nxM8-13" target="dokCw9jBq2JZzCb2nxM8-7">
          <mxGeometry relative="1" as="geometry">
            <Array as="points">
              <mxPoint x="560" y="465" />
            </Array>
          </mxGeometry>
        </mxCell>
        <mxCell id="dokCw9jBq2JZzCb2nxM8-43" value="Products" style="edgeLabel;html=1;align=center;verticalAlign=middle;resizable=0;points=[];" vertex="1" connectable="0" parent="dokCw9jBq2JZzCb2nxM8-41">
          <mxGeometry x="-0.4336" y="-3" relative="1" as="geometry">
            <mxPoint as="offset" />
          </mxGeometry>
        </mxCell>
        <mxCell id="dokCw9jBq2JZzCb2nxM8-13" value="Dynamics" style="ellipse;whiteSpace=wrap;html=1;" vertex="1" parent="1">
          <mxGeometry x="450" y="505" width="110" height="60" as="geometry" />
        </mxCell>
        <mxCell id="dokCw9jBq2JZzCb2nxM8-14" value="Resource holders" style="ellipse;whiteSpace=wrap;html=1;" vertex="1" parent="1">
          <mxGeometry x="304" y="410" width="110" height="60" as="geometry" />
        </mxCell>
        <mxCell id="dokCw9jBq2JZzCb2nxM8-46" style="edgeStyle=orthogonalEdgeStyle;rounded=0;orthogonalLoop=1;jettySize=auto;html=1;" edge="1" parent="1" source="dokCw9jBq2JZzCb2nxM8-15" target="dokCw9jBq2JZzCb2nxM8-14">
          <mxGeometry relative="1" as="geometry">
            <Array as="points">
              <mxPoint x="225" y="500" />
              <mxPoint x="359" y="500" />
            </Array>
          </mxGeometry>
        </mxCell>
        <mxCell id="dokCw9jBq2JZzCb2nxM8-47" value="Management object" style="edgeLabel;html=1;align=center;verticalAlign=middle;resizable=0;points=[];" vertex="1" connectable="0" parent="dokCw9jBq2JZzCb2nxM8-46">
          <mxGeometry x="-0.1752" y="3" relative="1" as="geometry">
            <mxPoint as="offset" />
          </mxGeometry>
        </mxCell>
        <mxCell id="dokCw9jBq2JZzCb2nxM8-60" style="edgeStyle=orthogonalEdgeStyle;rounded=0;orthogonalLoop=1;jettySize=auto;html=1;endArrow=open;endFill=0;" edge="1" parent="1" source="dokCw9jBq2JZzCb2nxM8-15" target="dokCw9jBq2JZzCb2nxM8-16">
          <mxGeometry relative="1" as="geometry" />
        </mxCell>
        <mxCell id="dokCw9jBq2JZzCb2nxM8-62" value="subject" style="edgeLabel;html=1;align=center;verticalAlign=middle;resizable=0;points=[];" vertex="1" connectable="0" parent="dokCw9jBq2JZzCb2nxM8-60">
          <mxGeometry x="0.1" y="1" relative="1" as="geometry">
            <mxPoint as="offset" />
          </mxGeometry>
        </mxCell>
        <mxCell id="dokCw9jBq2JZzCb2nxM8-15" value="Collective Management method" style="ellipse;whiteSpace=wrap;html=1;" vertex="1" parent="1">
          <mxGeometry x="170" y="390" width="110" height="60" as="geometry" />
        </mxCell>
        <mxCell id="dokCw9jBq2JZzCb2nxM8-48" style="edgeStyle=orthogonalEdgeStyle;rounded=0;orthogonalLoop=1;jettySize=auto;html=1;" edge="1" parent="1" source="dokCw9jBq2JZzCb2nxM8-15" target="dokCw9jBq2JZzCb2nxM8-11">
          <mxGeometry relative="1" as="geometry">
            <Array as="points">
              <mxPoint x="225" y="370" />
            </Array>
          </mxGeometry>
        </mxCell>
        <mxCell id="dokCw9jBq2JZzCb2nxM8-49" value="Is" style="edgeLabel;html=1;align=center;verticalAlign=middle;resizable=0;points=[];" vertex="1" connectable="0" parent="dokCw9jBq2JZzCb2nxM8-48">
          <mxGeometry x="-0.475" y="2" relative="1" as="geometry">
            <mxPoint x="-1" as="offset" />
          </mxGeometry>
        </mxCell>
        <mxCell id="dokCw9jBq2JZzCb2nxM8-16" value="Collective Stakeholder" style="ellipse;whiteSpace=wrap;html=1;" vertex="1" parent="1">
          <mxGeometry y="390" width="110" height="60" as="geometry" />
        </mxCell>
        <mxCell id="dokCw9jBq2JZzCb2nxM8-55" style="edgeStyle=orthogonalEdgeStyle;rounded=0;orthogonalLoop=1;jettySize=auto;html=1;endArrow=open;endFill=0;" edge="1" parent="1" source="dokCw9jBq2JZzCb2nxM8-17" target="dokCw9jBq2JZzCb2nxM8-18">
          <mxGeometry relative="1" as="geometry">
            <Array as="points">
              <mxPoint x="55" y="320" />
            </Array>
          </mxGeometry>
        </mxCell>
        <mxCell id="dokCw9jBq2JZzCb2nxM8-57" value="Is" style="edgeLabel;html=1;align=center;verticalAlign=middle;resizable=0;points=[];" vertex="1" connectable="0" parent="dokCw9jBq2JZzCb2nxM8-55">
          <mxGeometry x="0.4711" y="3" relative="1" as="geometry">
            <mxPoint as="offset" />
          </mxGeometry>
        </mxCell>
        <mxCell id="dokCw9jBq2JZzCb2nxM8-56" style="edgeStyle=orthogonalEdgeStyle;rounded=0;orthogonalLoop=1;jettySize=auto;html=1;endArrow=open;endFill=0;" edge="1" parent="1" source="dokCw9jBq2JZzCb2nxM8-17" target="dokCw9jBq2JZzCb2nxM8-16">
          <mxGeometry relative="1" as="geometry">
            <Array as="points">
              <mxPoint x="55" y="340" />
            </Array>
          </mxGeometry>
        </mxCell>
        <mxCell id="dokCw9jBq2JZzCb2nxM8-58" value="Is" style="edgeLabel;html=1;align=center;verticalAlign=middle;resizable=0;points=[];" vertex="1" connectable="0" parent="dokCw9jBq2JZzCb2nxM8-56">
          <mxGeometry x="0.2533" y="2" relative="1" as="geometry">
            <mxPoint y="-1" as="offset" />
          </mxGeometry>
        </mxCell>
        <mxCell id="dokCw9jBq2JZzCb2nxM8-17" value="Stakeholder" style="ellipse;whiteSpace=wrap;html=1;" vertex="1" parent="1">
          <mxGeometry x="80" y="310" width="110" height="60" as="geometry" />
        </mxCell>
        <mxCell id="dokCw9jBq2JZzCb2nxM8-18" value="Individual Stakeholder" style="ellipse;whiteSpace=wrap;html=1;" vertex="1" parent="1">
          <mxGeometry y="230" width="110" height="60" as="geometry" />
        </mxCell>
        <mxCell id="dokCw9jBq2JZzCb2nxM8-59" style="edgeStyle=orthogonalEdgeStyle;rounded=0;orthogonalLoop=1;jettySize=auto;html=1;endArrow=open;endFill=0;" edge="1" parent="1" source="dokCw9jBq2JZzCb2nxM8-19" target="dokCw9jBq2JZzCb2nxM8-18">
          <mxGeometry relative="1" as="geometry" />
        </mxCell>
        <mxCell id="dokCw9jBq2JZzCb2nxM8-61" value="subject" style="edgeLabel;html=1;align=center;verticalAlign=middle;resizable=0;points=[];" vertex="1" connectable="0" parent="dokCw9jBq2JZzCb2nxM8-59">
          <mxGeometry x="-0.3308" y="2" relative="1" as="geometry">
            <mxPoint as="offset" />
          </mxGeometry>
        </mxCell>
        <mxCell id="dokCw9jBq2JZzCb2nxM8-19" value="Individual Management method" style="ellipse;whiteSpace=wrap;html=1;" vertex="1" parent="1">
          <mxGeometry x="170" y="235" width="110" height="60" as="geometry" />
        </mxCell>
        <mxCell id="dokCw9jBq2JZzCb2nxM8-20" value="" style="shape=flexArrow;endArrow=classic;html=1;rounded=0;" edge="1" parent="1" source="dokCw9jBq2JZzCb2nxM8-4" target="dokCw9jBq2JZzCb2nxM8-3">
          <mxGeometry width="50" height="50" relative="1" as="geometry">
            <mxPoint x="439" y="350" as="sourcePoint" />
            <mxPoint x="489" y="300" as="targetPoint" />
          </mxGeometry>
        </mxCell>
        <mxCell id="dokCw9jBq2JZzCb2nxM8-31" value="Set&amp;lt;T&amp;gt;" style="edgeLabel;html=1;align=center;verticalAlign=middle;resizable=0;points=[];" vertex="1" connectable="0" parent="dokCw9jBq2JZzCb2nxM8-20">
          <mxGeometry x="-0.4093" y="1" relative="1" as="geometry">
            <mxPoint as="offset" />
          </mxGeometry>
        </mxCell>
        <mxCell id="dokCw9jBq2JZzCb2nxM8-21" value="" style="shape=flexArrow;endArrow=classic;html=1;rounded=0;" edge="1" parent="1" source="dokCw9jBq2JZzCb2nxM8-11" target="dokCw9jBq2JZzCb2nxM8-10">
          <mxGeometry width="50" height="50" relative="1" as="geometry">
            <mxPoint x="340" y="270" as="sourcePoint" />
            <mxPoint x="340" y="230" as="targetPoint" />
            <Array as="points" />
          </mxGeometry>
        </mxCell>
        <mxCell id="dokCw9jBq2JZzCb2nxM8-30" value="Set&amp;lt;T&amp;gt;" style="edgeLabel;html=1;align=center;verticalAlign=middle;resizable=0;points=[];" vertex="1" connectable="0" parent="dokCw9jBq2JZzCb2nxM8-21">
          <mxGeometry x="-0.0066" y="-7" relative="1" as="geometry">
            <mxPoint as="offset" />
          </mxGeometry>
        </mxCell>
        <mxCell id="dokCw9jBq2JZzCb2nxM8-22" value="" style="shape=flexArrow;endArrow=classic;html=1;rounded=0;" edge="1" parent="1" source="dokCw9jBq2JZzCb2nxM8-5" target="dokCw9jBq2JZzCb2nxM8-6">
          <mxGeometry width="50" height="50" relative="1" as="geometry">
            <mxPoint x="484" y="350" as="sourcePoint" />
            <mxPoint x="484" y="310" as="targetPoint" />
          </mxGeometry>
        </mxCell>
        <mxCell id="dokCw9jBq2JZzCb2nxM8-28" value="Set&amp;lt;T&amp;gt;" style="edgeLabel;html=1;align=center;verticalAlign=middle;resizable=0;points=[];" vertex="1" connectable="0" parent="dokCw9jBq2JZzCb2nxM8-22">
          <mxGeometry x="0.2053" y="-6" relative="1" as="geometry">
            <mxPoint as="offset" />
          </mxGeometry>
        </mxCell>
        <mxCell id="dokCw9jBq2JZzCb2nxM8-24" value="" style="shape=flexArrow;endArrow=classic;html=1;rounded=0;" edge="1" parent="1" source="dokCw9jBq2JZzCb2nxM8-9" target="dokCw9jBq2JZzCb2nxM8-7">
          <mxGeometry width="50" height="50" relative="1" as="geometry">
            <mxPoint x="680" y="470" as="sourcePoint" />
            <mxPoint x="680" y="400" as="targetPoint" />
          </mxGeometry>
        </mxCell>
        <mxCell id="dokCw9jBq2JZzCb2nxM8-29" value="Set&amp;lt;T&amp;gt;" style="edgeLabel;html=1;align=center;verticalAlign=middle;resizable=0;points=[];" vertex="1" connectable="0" parent="dokCw9jBq2JZzCb2nxM8-24">
          <mxGeometry x="0.2423" y="-5" relative="1" as="geometry">
            <mxPoint as="offset" />
          </mxGeometry>
        </mxCell>
        <mxCell id="dokCw9jBq2JZzCb2nxM8-25" value="" style="shape=flexArrow;endArrow=classic;html=1;rounded=0;" edge="1" parent="1" source="dokCw9jBq2JZzCb2nxM8-12" target="dokCw9jBq2JZzCb2nxM8-14">
          <mxGeometry width="50" height="50" relative="1" as="geometry">
            <mxPoint x="670" y="545" as="sourcePoint" />
            <mxPoint x="670" y="475" as="targetPoint" />
          </mxGeometry>
        </mxCell>
        <mxCell id="dokCw9jBq2JZzCb2nxM8-26" value="Set&amp;lt;T&amp;gt;" style="edgeLabel;html=1;align=center;verticalAlign=middle;resizable=0;points=[];" vertex="1" connectable="0" parent="dokCw9jBq2JZzCb2nxM8-25">
          <mxGeometry x="-0.5217" y="3" relative="1" as="geometry">
            <mxPoint x="-9" y="2" as="offset" />
          </mxGeometry>
        </mxCell>
        <mxCell id="dokCw9jBq2JZzCb2nxM8-50" style="edgeStyle=orthogonalEdgeStyle;rounded=0;orthogonalLoop=1;jettySize=auto;html=1;" edge="1" parent="1" source="dokCw9jBq2JZzCb2nxM8-19" target="dokCw9jBq2JZzCb2nxM8-11">
          <mxGeometry relative="1" as="geometry">
            <Array as="points">
              <mxPoint x="225" y="330" />
            </Array>
          </mxGeometry>
        </mxCell>
        <mxCell id="dokCw9jBq2JZzCb2nxM8-51" value="Is" style="edgeLabel;html=1;align=center;verticalAlign=middle;resizable=0;points=[];" vertex="1" connectable="0" parent="dokCw9jBq2JZzCb2nxM8-50">
          <mxGeometry x="-0.5009" y="2" relative="1" as="geometry">
            <mxPoint y="-1" as="offset" />
          </mxGeometry>
        </mxCell>
        <mxCell id="dokCw9jBq2JZzCb2nxM8-66" value="Factors" style="ellipse;whiteSpace=wrap;html=1;" vertex="1" parent="1">
          <mxGeometry x="321.5" y="750" width="95" height="50" as="geometry" />
        </mxCell>
        <mxCell id="dokCw9jBq2JZzCb2nxM8-67" value="Market" style="ellipse;whiteSpace=wrap;html=1;" vertex="1" parent="1">
          <mxGeometry x="160" y="780" width="95" height="50" as="geometry" />
        </mxCell>
        <mxCell id="dokCw9jBq2JZzCb2nxM8-68" value="Stocks" style="ellipse;whiteSpace=wrap;html=1;" vertex="1" parent="1">
          <mxGeometry x="30" y="800" width="95" height="50" as="geometry" />
        </mxCell>
        <mxCell id="dokCw9jBq2JZzCb2nxM8-69" value="Prices" style="ellipse;whiteSpace=wrap;html=1;" vertex="1" parent="1">
          <mxGeometry x="140" y="870" width="95" height="50" as="geometry" />
        </mxCell>
        <mxCell id="dokCw9jBq2JZzCb2nxM8-76" style="rounded=0;orthogonalLoop=1;jettySize=auto;html=1;endArrow=open;endFill=0;" edge="1" parent="1" source="dokCw9jBq2JZzCb2nxM8-70" target="dokCw9jBq2JZzCb2nxM8-71">
          <mxGeometry relative="1" as="geometry" />
        </mxCell>
        <mxCell id="dokCw9jBq2JZzCb2nxM8-83" value="season ending" style="edgeLabel;html=1;align=center;verticalAlign=middle;resizable=0;points=[];" vertex="1" connectable="0" parent="dokCw9jBq2JZzCb2nxM8-76">
          <mxGeometry x="-0.2872" y="-2" relative="1" as="geometry">
            <mxPoint as="offset" />
          </mxGeometry>
        </mxCell>
        <mxCell id="dokCw9jBq2JZzCb2nxM8-77" style="rounded=0;orthogonalLoop=1;jettySize=auto;html=1;endArrow=open;endFill=0;" edge="1" parent="1" source="dokCw9jBq2JZzCb2nxM8-70" target="dokCw9jBq2JZzCb2nxM8-72">
          <mxGeometry relative="1" as="geometry" />
        </mxCell>
        <mxCell id="dokCw9jBq2JZzCb2nxM8-81" style="edgeStyle=orthogonalEdgeStyle;rounded=0;orthogonalLoop=1;jettySize=auto;html=1;curved=1;endArrow=open;endFill=0;" edge="1" parent="1" source="dokCw9jBq2JZzCb2nxM8-70" target="dokCw9jBq2JZzCb2nxM8-71">
          <mxGeometry relative="1" as="geometry">
            <Array as="points">
              <mxPoint x="547" y="700" />
            </Array>
          </mxGeometry>
        </mxCell>
        <mxCell id="dokCw9jBq2JZzCb2nxM8-82" value="season-beginning" style="edgeLabel;html=1;align=center;verticalAlign=middle;resizable=0;points=[];" vertex="1" connectable="0" parent="dokCw9jBq2JZzCb2nxM8-81">
          <mxGeometry x="-0.0006" y="-9" relative="1" as="geometry">
            <mxPoint as="offset" />
          </mxGeometry>
        </mxCell>
        <mxCell id="dokCw9jBq2JZzCb2nxM8-70" value="Climate" style="ellipse;whiteSpace=wrap;html=1;" vertex="1" parent="1">
          <mxGeometry x="500" y="750" width="95" height="50" as="geometry" />
        </mxCell>
        <mxCell id="dokCw9jBq2JZzCb2nxM8-71" value="Date" style="ellipse;whiteSpace=wrap;html=1;" vertex="1" parent="1">
          <mxGeometry x="680" y="690" width="95" height="50" as="geometry" />
        </mxCell>
        <mxCell id="dokCw9jBq2JZzCb2nxM8-72" value="Duration" style="ellipse;whiteSpace=wrap;html=1;" vertex="1" parent="1">
          <mxGeometry x="707" y="780" width="95" height="50" as="geometry" />
        </mxCell>
        <mxCell id="dokCw9jBq2JZzCb2nxM8-73" value="Integer" style="ellipse;whiteSpace=wrap;html=1;" vertex="1" parent="1">
          <mxGeometry x="700" y="870" width="95" height="50" as="geometry" />
        </mxCell>
        <mxCell id="dokCw9jBq2JZzCb2nxM8-74" value="Range" style="ellipse;whiteSpace=wrap;html=1;" vertex="1" parent="1">
          <mxGeometry x="680" y="950" width="95" height="50" as="geometry" />
        </mxCell>
        <mxCell id="dokCw9jBq2JZzCb2nxM8-75" value="Real" style="ellipse;whiteSpace=wrap;html=1;" vertex="1" parent="1">
          <mxGeometry x="520" y="960" width="95" height="50" as="geometry" />
        </mxCell>
        <mxCell id="dokCw9jBq2JZzCb2nxM8-78" style="rounded=0;orthogonalLoop=1;jettySize=auto;html=1;endArrow=open;endFill=0;" edge="1" parent="1" source="dokCw9jBq2JZzCb2nxM8-70" target="dokCw9jBq2JZzCb2nxM8-73">
          <mxGeometry relative="1" as="geometry">
            <mxPoint x="603" y="792" as="sourcePoint" />
            <mxPoint x="719" y="808" as="targetPoint" />
          </mxGeometry>
        </mxCell>
        <mxCell id="dokCw9jBq2JZzCb2nxM8-79" style="rounded=0;orthogonalLoop=1;jettySize=auto;html=1;endArrow=open;endFill=0;" edge="1" parent="1" source="dokCw9jBq2JZzCb2nxM8-70" target="dokCw9jBq2JZzCb2nxM8-74">
          <mxGeometry relative="1" as="geometry">
            <mxPoint x="589" y="804" as="sourcePoint" />
            <mxPoint x="726" y="886" as="targetPoint" />
          </mxGeometry>
        </mxCell>
        <mxCell id="dokCw9jBq2JZzCb2nxM8-80" style="rounded=0;orthogonalLoop=1;jettySize=auto;html=1;endArrow=open;endFill=0;" edge="1" parent="1" source="dokCw9jBq2JZzCb2nxM8-70" target="dokCw9jBq2JZzCb2nxM8-75">
          <mxGeometry relative="1" as="geometry">
            <mxPoint x="578" y="808" as="sourcePoint" />
            <mxPoint x="717" y="962" as="targetPoint" />
          </mxGeometry>
        </mxCell>
      </root>
    </mxGraphModel>
  </diagram>
</mxfile>
